<?xml version="1.0" encoding="UTF-8" standalone="no"?>
<!-- Created with Inkscape (http://www.inkscape.org/) -->
<svg
   xmlns:dc="http://purl.org/dc/elements/1.1/"
   xmlns:cc="http://creativecommons.org/ns#"
   xmlns:rdf="http://www.w3.org/1999/02/22-rdf-syntax-ns#"
   xmlns:svg="http://www.w3.org/2000/svg"
   xmlns="http://www.w3.org/2000/svg"
   xmlns:xlink="http://www.w3.org/1999/xlink"
   xmlns:sodipodi="http://sodipodi.sourceforge.net/DTD/sodipodi-0.dtd"
   xmlns:inkscape="http://www.inkscape.org/namespaces/inkscape"
   width="452.65179"
   height="448.61163"
   id="svg2"
   sodipodi:version="0.32"
   inkscape:version="0.46"
   sodipodi:docname="Kalasin - Kuchinarai - No Ko.svg"
   inkscape:output_extension="org.inkscape.output.svg.inkscape"
   version="1.0"
   inkscape:export-filename="C:\Documents and Settings\andy\My Documents\Thailand\DOPA\Tambon\misc\Emblems\Kalasin - Kuchinarai - No Ko.png"
   inkscape:export-xdpi="90.077911"
   inkscape:export-ydpi="90.077911">
  <defs
     id="defs4">
    <inkscape:perspective
       sodipodi:type="inkscape:persp3d"
       inkscape:vp_x="0 : 526.18109 : 1"
       inkscape:vp_y="0 : 1000 : 0"
       inkscape:vp_z="744.09448 : 526.18109 : 1"
       inkscape:persp3d-origin="372.04724 : 350.78739 : 1"
       id="perspective10" />
    <inkscape:perspective
       id="perspective2390"
       inkscape:persp3d-origin="372.04724 : 350.78739 : 1"
       inkscape:vp_z="744.09448 : 526.18109 : 1"
       inkscape:vp_y="0 : 1000 : 0"
       inkscape:vp_x="0 : 526.18109 : 1"
       sodipodi:type="inkscape:persp3d" />
    <inkscape:perspective
       id="perspective2400"
       inkscape:persp3d-origin="372.04724 : 350.78739 : 1"
       inkscape:vp_z="744.09448 : 526.18109 : 1"
       inkscape:vp_y="0 : 1000 : 0"
       inkscape:vp_x="0 : 526.18109 : 1"
       sodipodi:type="inkscape:persp3d" />
  </defs>
  <sodipodi:namedview
     id="base"
     pagecolor="#ffffff"
     bordercolor="#666666"
     borderopacity="1.0"
     inkscape:pageopacity="0.0"
     inkscape:pageshadow="2"
     inkscape:zoom="1.4266237"
     inkscape:cx="226.3259"
     inkscape:cy="224.30582"
     inkscape:document-units="px"
     inkscape:current-layer="layer3"
     showgrid="false"
     inkscape:window-width="1440"
     inkscape:window-height="853"
     inkscape:window-x="1"
     inkscape:window-y="-9"
     showguides="true"
     inkscape:guide-bbox="true" />
  <metadata
     id="metadata7">
    <rdf:RDF>
      <cc:Work
         rdf:about="">
        <dc:format>image/svg+xml</dc:format>
        <dc:type
           rdf:resource="http://purl.org/dc/dcmitype/StillImage" />
      </cc:Work>
    </rdf:RDF>
  </metadata>
  <g
     inkscape:label="Background"
     inkscape:groupmode="layer"
     id="layer1"
     style="display:inline"
     sodipodi:insensitive="true"
     transform="translate(-148.60268,-138.39789)">
    <path
       sodipodi:type="arc"
       style="opacity:1;fill:#016af7;fill-opacity:1;fill-rule:evenodd;stroke:#f3f107;stroke-width:5;stroke-linecap:round;stroke-linejoin:miter;stroke-miterlimit:4;stroke-dasharray:none;stroke-opacity:1"
       id="path3200"
       sodipodi:cx="360.38394"
       sodipodi:cy="357.04745"
       sodipodi:rx="223.8259"
       sodipodi:ry="221.80582"
       d="M 584.20984,357.04745 A 223.8259,221.80582 0 1 1 136.55804,357.04745 A 223.8259,221.80582 0 1 1 584.20984,357.04745 z"
       transform="translate(14.544644,5.65625)" />
    <path
       sodipodi:type="arc"
       style="opacity:1;fill:#41fbaa;fill-opacity:1;fill-rule:evenodd;stroke:#f3f107;stroke-width:5;stroke-linecap:round;stroke-linejoin:miter;stroke-miterlimit:4;stroke-dasharray:none;stroke-opacity:1"
       id="path2408"
       sodipodi:cx="360.78793"
       sodipodi:cy="361.08762"
       sodipodi:rx="137.77008"
       sodipodi:ry="136.96205"
       d="M 498.55801,361.08762 A 137.77008,136.96205 0 1 1 223.01785,361.08762 A 137.77008,136.96205 0 1 1 498.55801,361.08762 z"
       transform="translate(15.352678,2.4241071)" />
  </g>
  <g
     inkscape:groupmode="layer"
     id="layer3"
     inkscape:label="Border"
     style="display:inline"
     sodipodi:insensitive="true"
     transform="translate(-148.60268,-138.39789)">
    <path
       id="path3203"
       style="opacity:1;fill:#016af7;fill-opacity:1;fill-rule:evenodd;stroke:#f3f107;stroke-width:5;stroke-linecap:round;stroke-linejoin:miter;stroke-miterlimit:4;stroke-opacity:1"
       d="M 598.75448,362.7037 C 598.75448,485.14052 498.48048,584.50952 374.92858,584.50952 C 251.37669,584.50952 151.10268,485.14052 151.10268,362.7037 C 151.10268,240.26689 251.37669,140.89789 374.92858,140.89789 C 498.48048,140.89789 598.75448,240.26689 598.75448,362.7037 z M 513.91069,363.51173 C 513.91069,439.11478 452.1897,500.47378 376.14061,500.47378 C 300.09153,500.47378 238.37053,439.11478 238.37053,363.51173 C 238.37053,287.90867 300.09153,226.54967 376.14061,226.54967 C 452.1897,226.54967 513.91069,287.90867 513.91069,363.51173 z" />
    <g
       id="g2407">
      <path
         sodipodi:nodetypes="ccc"
         id="path3210"
         d="M 175.2478,334.10681 C 171.77157,341.02112 178.83389,344.78171 193.16346,343.39038 C 186.84125,329.08366 179.89521,326.29614 175.2478,334.10681 z"
         style="fill:#15e334;fill-opacity:1;fill-rule:evenodd;stroke:#b62c3c;stroke-width:2;stroke-linecap:butt;stroke-linejoin:miter;stroke-miterlimit:4;stroke-dasharray:none;stroke-opacity:1" />
      <path
         sodipodi:nodetypes="ccc"
         id="path3212"
         d="M 196.58374,317.98271 C 189.85011,318.0565 189.58329,331.26353 198.21243,338.66716 C 206.05988,328.59505 204.81428,317.33831 196.58374,317.98271 z"
         style="fill:#15e334;fill-opacity:1;fill-rule:evenodd;stroke:#b62c3c;stroke-width:2;stroke-linecap:butt;stroke-linejoin:miter;stroke-miterlimit:4;stroke-dasharray:none;stroke-opacity:1;display:inline" />
      <path
         sodipodi:nodetypes="ccc"
         id="path2399"
         d="M 218.89689,328.56924 C 214.76917,324.73416 200.8213,337.45258 202.93565,342.90177 C 217.46076,345.85924 222.72995,333.29954 218.89689,328.56924 z"
         style="fill:#15e334;fill-opacity:1;fill-rule:evenodd;stroke:#b62c3c;stroke-width:2;stroke-linecap:butt;stroke-linejoin:miter;stroke-miterlimit:4;stroke-dasharray:none;stroke-opacity:1;display:inline" />
      <path
         sodipodi:nodetypes="ccc"
         id="path2401"
         d="M 221.01419,359.02587 C 213.31774,368.72924 200.8195,351.01912 202.28417,349.25369 C 211.92319,346.83646 224.52151,347.63207 221.01419,359.02587 z"
         style="fill:#15e334;fill-opacity:1;fill-rule:evenodd;stroke:#b62c3c;stroke-width:2;stroke-linecap:butt;stroke-linejoin:miter;stroke-miterlimit:4;stroke-dasharray:none;stroke-opacity:1;display:inline" />
      <path
         sodipodi:nodetypes="ccc"
         id="path2403"
         d="M 200.65548,373.84702 C 188.05854,374.57229 195.93521,354.71677 200.16687,355.117 C 202.63962,355.46855 211.65481,373.52836 200.65548,373.84702 z"
         style="fill:#15e334;fill-opacity:1;fill-rule:evenodd;stroke:#b62c3c;stroke-width:2;stroke-linecap:butt;stroke-linejoin:miter;stroke-miterlimit:4;stroke-dasharray:none;stroke-opacity:1;display:inline" />
      <path
         sodipodi:nodetypes="ccc"
         id="path2405"
         d="M 178.17946,363.91197 C 172.58592,354.53931 180.78833,347.38763 192.51199,350.39378 C 193.68178,354.81707 184.45557,368.80513 178.17946,363.91197 z"
         style="fill:#15e334;fill-opacity:1;fill-rule:evenodd;stroke:#b62c3c;stroke-width:2;stroke-linecap:butt;stroke-linejoin:miter;stroke-miterlimit:4;stroke-dasharray:none;stroke-opacity:1;display:inline" />
    </g>
    <g
       style="display:inline"
       id="g2415"
       transform="translate(356.84751,0.1628697)">
      <path
         sodipodi:nodetypes="ccc"
         id="path2417"
         d="M 175.2478,334.10681 C 171.77157,341.02112 178.83389,344.78171 193.16346,343.39038 C 186.84125,329.08366 179.89521,326.29614 175.2478,334.10681 z"
         style="fill:#15e334;fill-opacity:1;fill-rule:evenodd;stroke:#b62c3c;stroke-width:2;stroke-linecap:butt;stroke-linejoin:miter;stroke-miterlimit:4;stroke-dasharray:none;stroke-opacity:1" />
      <path
         sodipodi:nodetypes="ccc"
         id="path2419"
         d="M 196.58374,317.98271 C 189.85011,318.0565 189.58329,331.26353 198.21243,338.66716 C 206.05988,328.59505 204.81428,317.33831 196.58374,317.98271 z"
         style="fill:#15e334;fill-opacity:1;fill-rule:evenodd;stroke:#b62c3c;stroke-width:2;stroke-linecap:butt;stroke-linejoin:miter;stroke-miterlimit:4;stroke-dasharray:none;stroke-opacity:1;display:inline" />
      <path
         sodipodi:nodetypes="ccc"
         id="path2421"
         d="M 218.89689,328.56924 C 214.76917,324.73416 200.8213,337.45258 202.93565,342.90177 C 217.46076,345.85924 222.72995,333.29954 218.89689,328.56924 z"
         style="fill:#15e334;fill-opacity:1;fill-rule:evenodd;stroke:#b62c3c;stroke-width:2;stroke-linecap:butt;stroke-linejoin:miter;stroke-miterlimit:4;stroke-dasharray:none;stroke-opacity:1;display:inline" />
      <path
         sodipodi:nodetypes="ccc"
         id="path2423"
         d="M 221.01419,359.02587 C 213.31774,368.72924 200.8195,351.01912 202.28417,349.25369 C 211.92319,346.83646 224.52151,347.63207 221.01419,359.02587 z"
         style="fill:#15e334;fill-opacity:1;fill-rule:evenodd;stroke:#b62c3c;stroke-width:2;stroke-linecap:butt;stroke-linejoin:miter;stroke-miterlimit:4;stroke-dasharray:none;stroke-opacity:1;display:inline" />
      <path
         sodipodi:nodetypes="ccc"
         id="path2425"
         d="M 200.65548,373.84702 C 188.05854,374.57229 195.93521,354.71677 200.16687,355.117 C 202.63962,355.46855 211.65481,373.52836 200.65548,373.84702 z"
         style="fill:#15e334;fill-opacity:1;fill-rule:evenodd;stroke:#b62c3c;stroke-width:2;stroke-linecap:butt;stroke-linejoin:miter;stroke-miterlimit:4;stroke-dasharray:none;stroke-opacity:1;display:inline" />
      <path
         sodipodi:nodetypes="ccc"
         id="path2427"
         d="M 178.17946,363.91197 C 172.58592,354.53931 180.78833,347.38763 192.51199,350.39378 C 193.68178,354.81707 184.45557,368.80513 178.17946,363.91197 z"
         style="fill:#15e334;fill-opacity:1;fill-rule:evenodd;stroke:#b62c3c;stroke-width:2;stroke-linecap:butt;stroke-linejoin:miter;stroke-miterlimit:4;stroke-dasharray:none;stroke-opacity:1;display:inline" />
    </g>
    <text
       xml:space="preserve"
       style="font-size:74px;font-style:normal;font-variant:normal;font-weight:normal;font-stretch:normal;text-align:start;line-height:100%;writing-mode:lr-tb;text-anchor:start;fill:#ffffff;fill-opacity:1;stroke:none;stroke-width:1px;stroke-linecap:butt;stroke-linejoin:miter;stroke-opacity:1;font-family:Arial Unicode MS;-inkscape-font-specification:Arial Unicode MS"
       id="text2429"
       sodipodi:linespacing="100%"><textPath
         xlink:href="#path2435"
         id="textPath2437"><tspan
   id="tspan2433"
   style="font-size:74px;font-style:normal;font-variant:normal;font-weight:normal;font-stretch:normal;text-align:start;line-height:100%;writing-mode:lr-tb;text-anchor:start;fill:#ffffff;fill-opacity:1;font-family:Arial Unicode MS;-inkscape-font-specification:Arial Unicode MS">อบต.นาโก</tspan></textPath></text>
    <path
       style="font-size:74px;font-style:normal;font-variant:normal;font-weight:normal;font-stretch:normal;text-align:start;line-height:100%;writing-mode:lr-tb;text-anchor:start;fill:none;fill-rule:evenodd;stroke:none;stroke-width:1px;stroke-linecap:butt;stroke-linejoin:miter;stroke-opacity:1;font-family:Arial Unicode MS;-inkscape-font-specification:Arial Unicode MS"
       d="M 247.25,284.73718 C 335.81436,153.10656 475.11468,221.6343 503.84375,287.61218"
       id="path2435"
       sodipodi:nodetypes="cc" />
    <path
       style="fill:none;fill-rule:evenodd;stroke:none;stroke-width:1px;stroke-linecap:butt;stroke-linejoin:miter;stroke-opacity:1"
       d="M 186.15625,410.51843 C 228.44613,638.855 546.11058,596.79165 567.09375,410.51843"
       id="path3211"
       sodipodi:nodetypes="cc" />
    <text
       xml:space="preserve"
       style="font-size:52px;font-style:normal;font-variant:normal;font-weight:normal;font-stretch:normal;text-align:start;line-height:100%;writing-mode:lr-tb;text-anchor:start;fill:#ffffff;fill-opacity:1;stroke:none;stroke-width:1px;stroke-linecap:butt;stroke-linejoin:miter;stroke-opacity:1;font-family:Arial Unicode MS;-inkscape-font-specification:Arial Unicode MS"
       id="text3213"
       sodipodi:linespacing="100%"><textPath
         xlink:href="#path3211"
         id="textPath3219"><tspan
   id="tspan3217"
   style="font-size:52px;font-style:normal;font-variant:normal;font-weight:normal;font-stretch:normal;text-align:start;line-height:100%;writing-mode:lr-tb;text-anchor:start;fill:#ffffff;fill-opacity:1;font-family:Arial Unicode MS;-inkscape-font-specification:Arial Unicode MS">อ.กุฉินารายณ์ จ.กาฬสินธุ์</tspan></textPath></text>
  </g>
  <g
     inkscape:groupmode="layer"
     id="layer4"
     inkscape:label="Emblem"
     style="display:inline"
     transform="translate(-148.60268,-138.39789)">
    <g
       id="g3198"
       transform="translate(-1.0657715,-3.1928223)">
      <path
         sodipodi:nodetypes="cccc"
         id="path3192"
         d="M 343.93424,478.23252 L 406.57892,478.36841 C 406.43554,469.79251 393.44191,463.38073 374.509,454.45201 C 356.15788,463.32458 343.8165,469.54202 343.93424,478.23252 z"
         style="opacity:1;fill:#f3ce03;fill-opacity:1;fill-rule:evenodd;stroke:#000000;stroke-width:2;stroke-linecap:butt;stroke-linejoin:miter;stroke-miterlimit:4;stroke-dasharray:none;stroke-opacity:1" />
      <path
         sodipodi:nodetypes="ccc"
         id="path3194"
         d="M 363.16929,475.68787 L 374.509,454.45201 L 384.58872,475.61312"
         style="fill:none;fill-rule:evenodd;stroke:#000000;stroke-width:6;stroke-linecap:round;stroke-linejoin:round;stroke-miterlimit:4;stroke-dasharray:none;stroke-opacity:1" />
      <path
         id="path3196"
         d="M 344.7907,475.82149 L 405.76744,475.91742"
         style="fill:none;fill-rule:evenodd;stroke:#000000;stroke-width:6;stroke-linecap:butt;stroke-linejoin:miter;stroke-miterlimit:4;stroke-dasharray:none;stroke-opacity:1"
         sodipodi:nodetypes="cc" />
    </g>
    <path
       style="fill:#f3ce03;fill-opacity:1;fill-rule:evenodd;stroke:#000000;stroke-width:2;stroke-linecap:butt;stroke-linejoin:round;stroke-miterlimit:4;stroke-dasharray:none;stroke-opacity:1"
       d="M 370.875,321.8125 L 370.875,322.03125 L 370.8125,322.03125 L 370.875,337.46875 L 370.875,376 C 360.63814,367.32889 357.31949,350.28282 354.40625,332.71875 L 350,332.71875 C 352.74858,356.87471 357.70534,373.16223 365.78125,378.40625 C 351.43465,373.07012 337.325,367.0859 333.40625,332.8125 L 328.3125,332.71875 C 331.59674,365.66473 342.91682,376.34676 355.40625,383.78125 C 332.92409,378.78019 312.84782,370.04131 311.125,332.71875 L 306.125,332.625 C 309.7267,379.95994 331.5286,382.08331 351,390 C 323.44462,383.89514 293.83861,381.73512 288.4375,333.125 L 284.4375,333.125 C 286.98495,386.44562 326.73814,392.81163 359.28125,399.1875 L 368.5,415.28125 L 371.625,415.28125 L 376.1875,415.28125 L 379.3125,415.28125 L 388.5,399.1875 C 421.04311,392.81163 460.82755,386.44562 463.375,333.125 L 459.375,333.125 C 453.97389,381.73512 424.36788,383.89514 396.8125,390 C 416.2839,382.08331 438.0858,379.95994 441.6875,332.625 L 436.6875,332.71875 C 434.96467,370.04131 414.88841,378.78019 392.40625,383.78125 C 404.89568,376.34676 416.21576,365.66473 419.5,332.71875 L 414.40625,332.8125 C 410.4875,367.0859 396.3466,373.07012 382,378.40625 C 390.0759,373.16223 395.06392,356.87471 397.8125,332.71875 L 393.40625,332.71875 C 390.493,350.28282 387.14311,367.32889 376.90625,376 L 376.90625,340.0625 L 376.96875,322.03125 L 376.90625,322.03125 L 376.90625,321.8125 L 373.875,321.90625 L 370.875,321.8125 z"
       id="path3204" />
    <path
       sodipodi:type="arc"
       style="opacity:1;fill:#f3ce03;fill-opacity:1;fill-rule:evenodd;stroke:#000000;stroke-width:2;stroke-linecap:round;stroke-linejoin:miter;stroke-miterlimit:4;stroke-dasharray:none;stroke-opacity:1"
       id="path2420"
       sodipodi:cx="375.05273"
       sodipodi:cy="434.68021"
       sodipodi:rx="11.27876"
       sodipodi:ry="17.597584"
       d="M 386.33149,434.68021 A 11.27876,17.597584 0 1 1 363.77397,434.68021 A 11.27876,17.597584 0 1 1 386.33149,434.68021 z"
       transform="translate(-1.3847167,-2.2146486)" />
    <g
       id="g3259"
       transform="translate(0,8.9160412e-2)">
      <path
         transform="translate(-1.0612793,-0.6064454)"
         d="M 467.56934,328.26648 A 5.0789795,5.4580078 0 1 1 457.41138,328.26648 A 5.0789795,5.4580078 0 1 1 467.56934,328.26648 z"
         sodipodi:ry="5.4580078"
         sodipodi:rx="5.0789795"
         sodipodi:cy="328.26648"
         sodipodi:cx="462.49036"
         id="path3209"
         style="opacity:1;fill:#f3ce03;fill-opacity:1;fill-rule:evenodd;stroke:#000000;stroke-width:2;stroke-linecap:butt;stroke-linejoin:round;stroke-miterlimit:4;stroke-dasharray:none;stroke-opacity:1"
         sodipodi:type="arc" />
      <g
         id="g3219">
        <path
           style="fill:#ffffff;fill-opacity:1;fill-rule:evenodd;stroke:#000000;stroke-width:1.5;stroke-linecap:butt;stroke-linejoin:miter;stroke-miterlimit:4;stroke-dasharray:none;stroke-opacity:1"
           d="M 458.12227,322.55916 L 458.12227,296.21248 C 459.74842,292.02986 463.11238,292.37235 464.63145,296.0575 L 464.47646,322.71414 L 458.12227,322.55916 z"
           id="path3213"
           sodipodi:nodetypes="ccccc" />
        <path
           style="fill:#f3ce03;fill-opacity:1;fill-rule:evenodd;stroke:#000000;stroke-width:1px;stroke-linecap:butt;stroke-linejoin:round;stroke-opacity:1"
           d="M 461.06689,290.4782 C 456.02912,286.71883 459.51927,282.1842 463.3916,277.61482 C 465.41453,282.72551 466.01146,287.41678 461.06689,290.4782 z"
           id="path3215"
           sodipodi:nodetypes="ccc" />
        <path
           style="fill:none;fill-rule:evenodd;stroke:#000000;stroke-width:1px;stroke-linecap:butt;stroke-linejoin:miter;stroke-opacity:1"
           d="M 461.22187,289.54832 L 461.22187,293.11287"
           id="path3217" />
      </g>
    </g>
    <g
       id="g3252"
       transform="translate(-22.317187,-6.5820088e-2)">
      <path
         sodipodi:type="arc"
         style="opacity:1;fill:#f3ce03;fill-opacity:1;fill-rule:evenodd;stroke:#000000;stroke-width:2;stroke-linecap:butt;stroke-linejoin:round;stroke-miterlimit:4;stroke-dasharray:none;stroke-opacity:1"
         id="path3232"
         sodipodi:cx="462.49036"
         sodipodi:cy="328.26648"
         sodipodi:rx="5.0789795"
         sodipodi:ry="5.4580078"
         d="M 467.56934,328.26648 A 5.0789795,5.4580078 0 1 1 457.41138,328.26648 A 5.0789795,5.4580078 0 1 1 467.56934,328.26648 z"
         transform="translate(-1.0612793,-0.6064454)" />
      <g
         id="g3234">
        <path
           sodipodi:nodetypes="ccccc"
           id="path3236"
           d="M 458.12227,322.55916 L 458.12227,296.21248 C 459.74842,292.02986 463.11238,292.37235 464.63145,296.0575 L 464.47646,322.71414 L 458.12227,322.55916 z"
           style="fill:#ffffff;fill-opacity:1;fill-rule:evenodd;stroke:#000000;stroke-width:1.5;stroke-linecap:butt;stroke-linejoin:miter;stroke-miterlimit:4;stroke-dasharray:none;stroke-opacity:1" />
        <path
           sodipodi:nodetypes="ccc"
           id="path3238"
           d="M 461.06689,290.4782 C 456.02912,286.71883 459.51927,282.1842 463.3916,277.61482 C 465.41453,282.72551 466.01146,287.41678 461.06689,290.4782 z"
           style="fill:#f3ce03;fill-opacity:1;fill-rule:evenodd;stroke:#000000;stroke-width:1px;stroke-linecap:butt;stroke-linejoin:round;stroke-opacity:1" />
        <path
           id="path3240"
           d="M 461.22187,289.54832 L 461.22187,293.11287"
           style="fill:none;fill-rule:evenodd;stroke:#000000;stroke-width:1px;stroke-linecap:butt;stroke-linejoin:miter;stroke-opacity:1" />
      </g>
    </g>
    <g
       transform="translate(-44.479394,-6.5820088e-2)"
       id="g3266">
      <path
         transform="translate(-1.0612793,-0.6064454)"
         d="M 467.56934,328.26648 A 5.0789795,5.4580078 0 1 1 457.41138,328.26648 A 5.0789795,5.4580078 0 1 1 467.56934,328.26648 z"
         sodipodi:ry="5.4580078"
         sodipodi:rx="5.0789795"
         sodipodi:cy="328.26648"
         sodipodi:cx="462.49036"
         id="path3268"
         style="opacity:1;fill:#f3ce03;fill-opacity:1;fill-rule:evenodd;stroke:#000000;stroke-width:2;stroke-linecap:butt;stroke-linejoin:round;stroke-miterlimit:4;stroke-dasharray:none;stroke-opacity:1"
         sodipodi:type="arc" />
      <g
         id="g3270">
        <path
           style="fill:#ffffff;fill-opacity:1;fill-rule:evenodd;stroke:#000000;stroke-width:1.5;stroke-linecap:butt;stroke-linejoin:miter;stroke-miterlimit:4;stroke-dasharray:none;stroke-opacity:1"
           d="M 458.12227,322.55916 L 458.12227,296.21248 C 459.74842,292.02986 463.11238,292.37235 464.63145,296.0575 L 464.47646,322.71414 L 458.12227,322.55916 z"
           id="path3272"
           sodipodi:nodetypes="ccccc" />
        <path
           style="fill:#f3ce03;fill-opacity:1;fill-rule:evenodd;stroke:#000000;stroke-width:1px;stroke-linecap:butt;stroke-linejoin:round;stroke-opacity:1"
           d="M 461.06689,290.4782 C 456.02912,286.71883 459.51927,282.1842 463.3916,277.61482 C 465.41453,282.72551 466.01146,287.41678 461.06689,290.4782 z"
           id="path3274"
           sodipodi:nodetypes="ccc" />
        <path
           style="fill:none;fill-rule:evenodd;stroke:#000000;stroke-width:1px;stroke-linecap:butt;stroke-linejoin:miter;stroke-opacity:1"
           d="M 461.22187,289.54832 L 461.22187,293.11287"
           id="path3276" />
      </g>
    </g>
    <g
       id="g3278"
       transform="translate(-65.866699,-0.5307615)">
      <path
         sodipodi:type="arc"
         style="opacity:1;fill:#f3ce03;fill-opacity:1;fill-rule:evenodd;stroke:#000000;stroke-width:2;stroke-linecap:butt;stroke-linejoin:round;stroke-miterlimit:4;stroke-dasharray:none;stroke-opacity:1"
         id="path3280"
         sodipodi:cx="462.49036"
         sodipodi:cy="328.26648"
         sodipodi:rx="5.0789795"
         sodipodi:ry="5.4580078"
         d="M 467.56934,328.26648 A 5.0789795,5.4580078 0 1 1 457.41138,328.26648 A 5.0789795,5.4580078 0 1 1 467.56934,328.26648 z"
         transform="translate(-1.0612793,-0.6064454)" />
      <g
         id="g3282">
        <path
           sodipodi:nodetypes="ccccc"
           id="path3284"
           d="M 458.12227,322.55916 L 458.12227,296.21248 C 459.74842,292.02986 463.11238,292.37235 464.63145,296.0575 L 464.47646,322.71414 L 458.12227,322.55916 z"
           style="fill:#ffffff;fill-opacity:1;fill-rule:evenodd;stroke:#000000;stroke-width:1.5;stroke-linecap:butt;stroke-linejoin:miter;stroke-miterlimit:4;stroke-dasharray:none;stroke-opacity:1" />
        <path
           sodipodi:nodetypes="ccc"
           id="path3286"
           d="M 461.06689,290.4782 C 456.02912,286.71883 459.51927,282.1842 463.3916,277.61482 C 465.41453,282.72551 466.01146,287.41678 461.06689,290.4782 z"
           style="fill:#f3ce03;fill-opacity:1;fill-rule:evenodd;stroke:#000000;stroke-width:1px;stroke-linecap:butt;stroke-linejoin:round;stroke-opacity:1" />
        <path
           id="path3288"
           d="M 461.22187,289.54832 L 461.22187,293.11287"
           style="fill:none;fill-rule:evenodd;stroke:#000000;stroke-width:1px;stroke-linecap:butt;stroke-linejoin:miter;stroke-opacity:1" />
      </g>
    </g>
    <g
       transform="translate(-87.718945,-10.565625)"
       id="g3290">
      <path
         transform="translate(-1.0612793,-0.6064454)"
         d="M 467.56934,328.26648 A 5.0789795,5.4580078 0 1 1 457.41138,328.26648 A 5.0789795,5.4580078 0 1 1 467.56934,328.26648 z"
         sodipodi:ry="5.4580078"
         sodipodi:rx="5.0789795"
         sodipodi:cy="328.26648"
         sodipodi:cx="462.49036"
         id="path3292"
         style="opacity:1;fill:#f3ce03;fill-opacity:1;fill-rule:evenodd;stroke:#000000;stroke-width:2;stroke-linecap:butt;stroke-linejoin:round;stroke-miterlimit:4;stroke-dasharray:none;stroke-opacity:1"
         sodipodi:type="arc" />
      <g
         id="g3294">
        <path
           style="fill:#ffffff;fill-opacity:1;fill-rule:evenodd;stroke:#000000;stroke-width:1.5;stroke-linecap:butt;stroke-linejoin:miter;stroke-miterlimit:4;stroke-dasharray:none;stroke-opacity:1"
           d="M 458.12227,322.55916 L 458.12227,296.21248 C 459.74842,292.02986 463.11238,292.37235 464.63145,296.0575 L 464.47646,322.71414 L 458.12227,322.55916 z"
           id="path3296"
           sodipodi:nodetypes="ccccc" />
        <path
           style="fill:#f3ce03;fill-opacity:1;fill-rule:evenodd;stroke:#000000;stroke-width:1px;stroke-linecap:butt;stroke-linejoin:round;stroke-opacity:1"
           d="M 461.06689,290.4782 C 456.02912,286.71883 459.51927,282.1842 463.3916,277.61482 C 465.41453,282.72551 466.01146,287.41678 461.06689,290.4782 z"
           id="path3298"
           sodipodi:nodetypes="ccc" />
        <path
           style="fill:none;fill-rule:evenodd;stroke:#000000;stroke-width:1px;stroke-linecap:butt;stroke-linejoin:miter;stroke-opacity:1"
           d="M 461.22187,289.54832 L 461.22187,293.11287"
           id="path3300" />
      </g>
    </g>
    <g
       id="g3302"
       transform="translate(-109.10625,-0.5307617)">
      <path
         sodipodi:type="arc"
         style="opacity:1;fill:#f3ce03;fill-opacity:1;fill-rule:evenodd;stroke:#000000;stroke-width:2;stroke-linecap:butt;stroke-linejoin:round;stroke-miterlimit:4;stroke-dasharray:none;stroke-opacity:1"
         id="path3304"
         sodipodi:cx="462.49036"
         sodipodi:cy="328.26648"
         sodipodi:rx="5.0789795"
         sodipodi:ry="5.4580078"
         d="M 467.56934,328.26648 A 5.0789795,5.4580078 0 1 1 457.41138,328.26648 A 5.0789795,5.4580078 0 1 1 467.56934,328.26648 z"
         transform="translate(-1.0612793,-0.6064454)" />
      <g
         id="g3306">
        <path
           sodipodi:nodetypes="ccccc"
           id="path3308"
           d="M 458.12227,322.55916 L 458.12227,296.21248 C 459.74842,292.02986 463.11238,292.37235 464.63145,296.0575 L 464.47646,322.71414 L 458.12227,322.55916 z"
           style="fill:#ffffff;fill-opacity:1;fill-rule:evenodd;stroke:#000000;stroke-width:1.5;stroke-linecap:butt;stroke-linejoin:miter;stroke-miterlimit:4;stroke-dasharray:none;stroke-opacity:1" />
        <path
           sodipodi:nodetypes="ccc"
           id="path3310"
           d="M 461.06689,290.4782 C 456.02912,286.71883 459.51927,282.1842 463.3916,277.61482 C 465.41453,282.72551 466.01146,287.41678 461.06689,290.4782 z"
           style="fill:#f3ce03;fill-opacity:1;fill-rule:evenodd;stroke:#000000;stroke-width:1px;stroke-linecap:butt;stroke-linejoin:round;stroke-opacity:1" />
        <path
           id="path3312"
           d="M 461.22187,289.54832 L 461.22187,293.11287"
           style="fill:none;fill-rule:evenodd;stroke:#000000;stroke-width:1px;stroke-linecap:butt;stroke-linejoin:miter;stroke-opacity:1" />
      </g>
    </g>
    <g
       transform="translate(-131.11348,-0.3757812)"
       id="g3314">
      <path
         transform="translate(-1.0612793,-0.6064454)"
         d="M 467.56934,328.26648 A 5.0789795,5.4580078 0 1 1 457.41138,328.26648 A 5.0789795,5.4580078 0 1 1 467.56934,328.26648 z"
         sodipodi:ry="5.4580078"
         sodipodi:rx="5.0789795"
         sodipodi:cy="328.26648"
         sodipodi:cx="462.49036"
         id="path3316"
         style="opacity:1;fill:#f3ce03;fill-opacity:1;fill-rule:evenodd;stroke:#000000;stroke-width:2;stroke-linecap:butt;stroke-linejoin:round;stroke-miterlimit:4;stroke-dasharray:none;stroke-opacity:1"
         sodipodi:type="arc" />
      <g
         id="g3318">
        <path
           style="fill:#ffffff;fill-opacity:1;fill-rule:evenodd;stroke:#000000;stroke-width:1.5;stroke-linecap:butt;stroke-linejoin:miter;stroke-miterlimit:4;stroke-dasharray:none;stroke-opacity:1"
           d="M 458.12227,322.55916 L 458.12227,296.21248 C 459.74842,292.02986 463.11238,292.37235 464.63145,296.0575 L 464.47646,322.71414 L 458.12227,322.55916 z"
           id="path3320"
           sodipodi:nodetypes="ccccc" />
        <path
           style="fill:#f3ce03;fill-opacity:1;fill-rule:evenodd;stroke:#000000;stroke-width:1px;stroke-linecap:butt;stroke-linejoin:round;stroke-opacity:1"
           d="M 461.06689,290.4782 C 456.02912,286.71883 459.51927,282.1842 463.3916,277.61482 C 465.41453,282.72551 466.01146,287.41678 461.06689,290.4782 z"
           id="path3322"
           sodipodi:nodetypes="ccc" />
        <path
           style="fill:none;fill-rule:evenodd;stroke:#000000;stroke-width:1px;stroke-linecap:butt;stroke-linejoin:miter;stroke-opacity:1"
           d="M 461.22187,289.54832 L 461.22187,293.11287"
           id="path3324" />
      </g>
    </g>
    <g
       id="g3338"
       transform="translate(-22.007226,0.7090823)">
      <g
         transform="translate(-152.50078,-0.4649416)"
         id="g3326">
        <path
           transform="translate(-1.0612793,-0.6064454)"
           d="M 467.56934,328.26648 A 5.0789795,5.4580078 0 1 1 457.41138,328.26648 A 5.0789795,5.4580078 0 1 1 467.56934,328.26648 z"
           sodipodi:ry="5.4580078"
           sodipodi:rx="5.0789795"
           sodipodi:cy="328.26648"
           sodipodi:cx="462.49036"
           id="path3328"
           style="opacity:1;fill:#f3ce03;fill-opacity:1;fill-rule:evenodd;stroke:#000000;stroke-width:2;stroke-linecap:butt;stroke-linejoin:round;stroke-miterlimit:4;stroke-dasharray:none;stroke-opacity:1"
           sodipodi:type="arc" />
        <g
           id="g3330">
          <path
             style="fill:#ffffff;fill-opacity:1;fill-rule:evenodd;stroke:#000000;stroke-width:1.5;stroke-linecap:butt;stroke-linejoin:miter;stroke-miterlimit:4;stroke-dasharray:none;stroke-opacity:1"
             d="M 458.12227,322.55916 L 458.12227,296.21248 C 459.74842,292.02986 463.11238,292.37235 464.63145,296.0575 L 464.47646,322.71414 L 458.12227,322.55916 z"
             id="path3332"
             sodipodi:nodetypes="ccccc" />
          <path
             style="fill:#f3ce03;fill-opacity:1;fill-rule:evenodd;stroke:#000000;stroke-width:1px;stroke-linecap:butt;stroke-linejoin:round;stroke-opacity:1"
             d="M 461.06689,290.4782 C 456.02912,286.71883 459.51927,282.1842 463.3916,277.61482 C 465.41453,282.72551 466.01146,287.41678 461.06689,290.4782 z"
             id="path3334"
             sodipodi:nodetypes="ccc" />
          <path
             style="fill:none;fill-rule:evenodd;stroke:#000000;stroke-width:1px;stroke-linecap:butt;stroke-linejoin:miter;stroke-opacity:1"
             d="M 461.22187,289.54832 L 461.22187,293.11287"
             id="path3336" />
        </g>
      </g>
    </g>
    <g
       transform="translate(-0.15498,0.3991213)"
       id="g3346">
      <g
         id="g3348"
         transform="translate(-152.50078,-0.4649416)">
        <path
           sodipodi:type="arc"
           style="opacity:1;fill:#f3ce03;fill-opacity:1;fill-rule:evenodd;stroke:#000000;stroke-width:2;stroke-linecap:butt;stroke-linejoin:round;stroke-miterlimit:4;stroke-dasharray:none;stroke-opacity:1"
           id="path3350"
           sodipodi:cx="462.49036"
           sodipodi:cy="328.26648"
           sodipodi:rx="5.0789795"
           sodipodi:ry="5.4580078"
           d="M 467.56934,328.26648 A 5.0789795,5.4580078 0 1 1 457.41138,328.26648 A 5.0789795,5.4580078 0 1 1 467.56934,328.26648 z"
           transform="translate(-1.0612793,-0.6064454)" />
        <g
           id="g3352">
          <path
             sodipodi:nodetypes="ccccc"
             id="path3354"
             d="M 458.12227,322.55916 L 458.12227,296.21248 C 459.74842,292.02986 463.11238,292.37235 464.63145,296.0575 L 464.47646,322.71414 L 458.12227,322.55916 z"
             style="fill:#ffffff;fill-opacity:1;fill-rule:evenodd;stroke:#000000;stroke-width:1.5;stroke-linecap:butt;stroke-linejoin:miter;stroke-miterlimit:4;stroke-dasharray:none;stroke-opacity:1" />
          <path
             sodipodi:nodetypes="ccc"
             id="path3356"
             d="M 461.06689,290.4782 C 456.02912,286.71883 459.51927,282.1842 463.3916,277.61482 C 465.41453,282.72551 466.01146,287.41678 461.06689,290.4782 z"
             style="fill:#f3ce03;fill-opacity:1;fill-rule:evenodd;stroke:#000000;stroke-width:1px;stroke-linecap:butt;stroke-linejoin:round;stroke-opacity:1" />
          <path
             id="path3358"
             d="M 461.22187,289.54832 L 461.22187,293.11287"
             style="fill:none;fill-rule:evenodd;stroke:#000000;stroke-width:1px;stroke-linecap:butt;stroke-linejoin:miter;stroke-opacity:1" />
        </g>
      </g>
    </g>
  </g>
</svg>
