<?xml version="1.0" encoding="UTF-8" standalone="no"?>
<!-- Created with Inkscape (http://www.inkscape.org/) -->
<svg
   xmlns:dc="http://purl.org/dc/elements/1.1/"
   xmlns:cc="http://creativecommons.org/ns#"
   xmlns:rdf="http://www.w3.org/1999/02/22-rdf-syntax-ns#"
   xmlns:svg="http://www.w3.org/2000/svg"
   xmlns="http://www.w3.org/2000/svg"
   xmlns:xlink="http://www.w3.org/1999/xlink"
   xmlns:sodipodi="http://sodipodi.sourceforge.net/DTD/sodipodi-0.dtd"
   xmlns:inkscape="http://www.inkscape.org/namespaces/inkscape"
   width="2411.907"
   height="2478.5967"
   id="svg2"
   sodipodi:version="0.32"
   inkscape:version="0.46"
   sodipodi:docname="Khon Kae - Ban Phai - Ban Phai.svg"
   inkscape:output_extension="org.inkscape.output.svg.inkscape"
   version="1.0"
   style="display:inline"
   inkscape:export-filename="C:\Documents and Settings\andy\My Documents\Thailand\DOPA\Tambon\misc\Emblems\Khon Kae - Ban Phai - Ban Phai.png"
   inkscape:export-xdpi="44.989166"
   inkscape:export-ydpi="44.989166">
  <defs
     id="defs4">
    <marker
       inkscape:stockid="TriangleInL"
       orient="auto"
       refY="0"
       refX="0"
       id="TriangleInL"
       style="overflow:visible">
      <path
         id="path3382"
         d="M 5.77,0 L -2.88,5 L -2.88,-5 L 5.77,0 z"
         style="fill-rule:evenodd;stroke:#000000;stroke-width:1pt;marker-start:none"
         transform="scale(-0.8,-0.8)" />
    </marker>
    <marker
       inkscape:stockid="Arrow2Lstart"
       orient="auto"
       refY="0"
       refX="0"
       id="Arrow2Lstart"
       style="overflow:visible">
      <path
         id="path3266"
         style="font-size:12px;fill-rule:evenodd;stroke-width:0.625;stroke-linejoin:round"
         d="M 8.7185878,4.0337352 L -2.2072895,0.016013256 L 8.7185884,-4.0017078 C 6.97309,-1.6296469 6.9831476,1.6157441 8.7185878,4.0337352 z"
         transform="matrix(1.1,0,0,1.1,1.1,0)" />
    </marker>
    <inkscape:perspective
       sodipodi:type="inkscape:persp3d"
       inkscape:vp_x="0 : 526.18109 : 1"
       inkscape:vp_y="0 : 1000 : 0"
       inkscape:vp_z="744.09448 : 526.18109 : 1"
       inkscape:persp3d-origin="372.04724 : 350.78739 : 1"
       id="perspective10" />
    <inkscape:perspective
       id="perspective2448"
       inkscape:persp3d-origin="372.04724 : 350.78739 : 1"
       inkscape:vp_z="744.09448 : 526.18109 : 1"
       inkscape:vp_y="0 : 1000 : 0"
       inkscape:vp_x="0 : 526.18109 : 1"
       sodipodi:type="inkscape:persp3d" />
  </defs>
  <sodipodi:namedview
     id="base"
     pagecolor="#ffffff"
     bordercolor="#666666"
     borderopacity="1.0"
     inkscape:pageopacity="0.0"
     inkscape:pageshadow="2"
     inkscape:zoom="0.25821063"
     inkscape:cx="1205.9535"
     inkscape:cy="1239.2983"
     inkscape:document-units="px"
     inkscape:current-layer="border"
     showgrid="false"
     inkscape:window-width="1440"
     inkscape:window-height="853"
     inkscape:window-x="1"
     inkscape:window-y="-3"
     showguides="true"
     inkscape:guide-bbox="true" />
  <metadata
     id="metadata7">
    <rdf:RDF>
      <cc:Work
         rdf:about="">
        <dc:format>image/svg+xml</dc:format>
        <dc:type
           rdf:resource="http://purl.org/dc/dcmitype/StillImage" />
      </cc:Work>
    </rdf:RDF>
  </metadata>
  <g
     inkscape:groupmode="layer"
     id="layer1"
     inkscape:label="Background"
     sodipodi:insensitive="true"
     transform="translate(942.1196,707.72164)">
    <path
       sodipodi:type="arc"
       style="opacity:1;fill:#008ce7;fill-opacity:1;fill-rule:evenodd;stroke:#f00808;stroke-width:15;stroke-linecap:round;stroke-linejoin:round;stroke-miterlimit:3.86369991;stroke-dasharray:none;stroke-opacity:1;display:inline"
       id="path2454"
       sodipodi:cx="282.85715"
       sodipodi:cy="502.36218"
       sodipodi:rx="774.28577"
       sodipodi:ry="795.71423"
       d="M 1057.1429,502.36218 A 774.28577,795.71423 0 1 1 -491.42862,502.36218 A 774.28577,795.71423 0 1 1 1057.1429,502.36218 z"
       transform="translate(-2.8571429,17.142857)" />
  </g>
  <g
     inkscape:groupmode="layer"
     id="bamboo"
     inkscape:label="bamboo"
     style="display:inline"
     transform="translate(942.1196,707.72164)">
    <g
       id="Stem 1">
      <path
         sodipodi:nodetypes="ccccccccccccc"
         id="path6697"
         d="M 419.86447,1305.5107 L 416.78979,1042.7965 C 404.9354,1020.0211 410.1916,985.63026 416.78979,962.85487 L 411.89092,635.57239 C 397.34573,619.21551 398.00576,597.45836 408.96879,568.34737 L 405.02178,482.93962 L 482.72456,383.79036 L 468.03444,570.66251 C 488.49649,612.10287 477.9828,627.73012 466.32628,642.40501 L 475.20869,969.34585 C 499.67707,1002.0832 499.11997,1025.9043 479.30826,1053.3871 L 488.19066,1286.3794 L 419.86447,1305.5107 z"
         style="opacity:1;fill:#1cac04;fill-opacity:1;stroke:#0c4504;stroke-width:10;stroke-linejoin:bevel;stroke-miterlimit:6;stroke-dasharray:none;stroke-opacity:1" />
      <g
         style="stroke:#0c4504;stroke-opacity:1"
         id="g6718">
        <path
           style="fill:none;fill-rule:evenodd;stroke:#0c4504;stroke-width:5;stroke-linecap:round;stroke-linejoin:miter;stroke-miterlimit:4;stroke-dasharray:none;stroke-opacity:1"
           d="M 414.74001,634.20587 L 471.45075,633.52261"
           id="path6700" />
        <path
           style="fill:none;fill-rule:evenodd;stroke:#0c4504;stroke-width:5;stroke-linecap:round;stroke-linejoin:miter;stroke-miterlimit:4;stroke-dasharray:none;stroke-opacity:1"
           d="M 407.90739,610.97496 C 418.15632,610.97496 479.64989,595.9432 479.64989,595.9432"
           id="path6702" />
        <path
           style="fill:none;fill-rule:evenodd;stroke:#0c4504;stroke-width:15;stroke-linecap:round;stroke-linejoin:miter;stroke-miterlimit:4;stroke-dasharray:none;stroke-opacity:1"
           d="M 409.27391,585.01101 C 423.62241,585.01101 472.81727,567.92946 472.81727,567.92946"
           id="path6704" />
        <path
           style="fill:none;fill-rule:evenodd;stroke:#0c4504;stroke-width:10;stroke-linecap:round;stroke-linejoin:miter;stroke-miterlimit:4;stroke-dasharray:none;stroke-opacity:1"
           d="M 416.10653,983.35273 L 483.74946,985.40251"
           id="path6706" />
        <path
           style="fill:none;fill-rule:evenodd;stroke:#0c4504;stroke-width:10;stroke-linecap:round;stroke-linejoin:miter;stroke-miterlimit:4;stroke-dasharray:none;stroke-opacity:1"
           d="M 414.05674,1001.8008 C 416.78979,1001.8008 487.16577,1006.5836 487.16577,1006.5836"
           id="path6708" />
        <path
           style="fill:none;fill-rule:evenodd;stroke:#0c4504;stroke-width:20;stroke-linecap:round;stroke-linejoin:round;stroke-miterlimit:4;stroke-dasharray:none;stroke-opacity:1"
           d="M 421.57263,1035.9639 L 477.6001,1038.0137"
           id="path6710"
           sodipodi:nodetypes="cc" />
        <path
           style="fill:none;fill-rule:evenodd;stroke:#0c4504;stroke-width:15;stroke-linecap:round;stroke-linejoin:miter;stroke-miterlimit:4;stroke-dasharray:none;stroke-opacity:1"
           d="M 351.87991,1007.9502 L 414.05674,1029.8145"
           id="path6712" />
        <path
           style="fill:none;fill-rule:evenodd;stroke:#0c4504;stroke-width:15;stroke-linecap:round;stroke-linejoin:miter;stroke-miterlimit:4;stroke-dasharray:none;stroke-opacity:1"
           d="M 358.02926,572.71229 L 376.47734,589.11058 L 402.11631,587.63646"
           id="path6714"
           sodipodi:nodetypes="ccc" />
        <path
           style="fill:none;fill-rule:evenodd;stroke:#0c4504;stroke-width:15;stroke-linecap:round;stroke-linejoin:miter;stroke-miterlimit:4;stroke-dasharray:none;stroke-opacity:1"
           d="M 474.1838,573.39555 L 507.30425,566.41984"
           id="path6716"
           sodipodi:nodetypes="cc" />
      </g>
    </g>
    <g
       id="Stem 3">
      <path
         sodipodi:nodetypes="ccccccccccccccccc"
         id="path6742"
         d="M 776.30723,-93.535883 C 776.44341,-93.535883 766.01998,22.599067 766.01998,22.599067 C 755.12704,47.259853 745.51639,72.561778 745.48658,102.65413 L 739.94216,342.01771 C 719.19654,359.73266 729.04488,414.13855 749.80806,458.76414 C 744.13262,577.07104 750.25638,704.44277 785.98301,804.87209 C 777.70735,855.63276 800.70056,877.19023 814.35773,906.01807 L 841.88975,1063.8724 L 897.79649,1001.3884 L 858.33291,863.26585 C 866.72785,815.32829 863.47307,779.54698 840.24543,764.6069 L 805.7148,425.87782 C 821.74727,387.59454 820.5532,359.9122 800.78185,343.66203 L 805.7148,164.43159 C 821.85218,137.60591 841.75557,115.91569 828.73522,49.329477 L 853.39996,-14.798843 L 776.30723,-93.535883 z"
         style="opacity:1;fill:#1cac04;fill-opacity:1;fill-rule:evenodd;stroke:#0c4504;stroke-width:15;stroke-linecap:butt;stroke-linejoin:miter;stroke-miterlimit:4;stroke-dasharray:none;stroke-opacity:1" />
      <g
         style="stroke:#0c4504;stroke-opacity:1"
         id="g6762">
        <path
           style="fill:none;fill-rule:evenodd;stroke:#0c4504;stroke-width:20;stroke-linecap:round;stroke-linejoin:miter;stroke-miterlimit:4;stroke-dasharray:none;stroke-opacity:1"
           d="M 809.22695,887.10843 C 811.29262,886.0756 855.18815,863.86963 855.18815,863.86963"
           id="path6744" />
        <path
           style="fill:none;fill-rule:evenodd;stroke:#0c4504;stroke-width:15;stroke-linecap:round;stroke-linejoin:miter;stroke-miterlimit:4;stroke-dasharray:none;stroke-opacity:1"
           d="M 792.70158,842.18007 C 796.83292,842.18007 858.80308,804.99798 858.80308,804.99798"
           id="path6746" />
        <path
           style="fill:none;fill-rule:evenodd;stroke:#0c4504;stroke-width:10;stroke-linecap:round;stroke-linejoin:miter;stroke-miterlimit:4;stroke-dasharray:none;stroke-opacity:1"
           d="M 790.11949,803.44872 L 840.72845,769.88156"
           id="path6748" />
        <path
           style="fill:none;fill-rule:evenodd;stroke:#0c4504;stroke-width:30;stroke-linecap:round;stroke-linejoin:miter;stroke-miterlimit:4;stroke-dasharray:none;stroke-opacity:1"
           d="M 749.83233,435.80983 C 749.83233,435.80983 806.77367,410.04618 806.77367,410.04618"
           id="path6750"
           sodipodi:nodetypes="cc" />
        <path
           style="fill:none;fill-rule:evenodd;stroke:#0c4504;stroke-width:15;stroke-linecap:round;stroke-linejoin:miter;stroke-miterlimit:4;stroke-dasharray:none;stroke-opacity:1"
           d="M 729.69859,387.73226 C 732.28068,387.21584 810.77621,363.97703 810.77621,363.97703"
           id="path6752"
           sodipodi:nodetypes="cc" />
        <path
           style="fill:none;fill-rule:evenodd;stroke:#0c4504;stroke-width:10;stroke-linecap:round;stroke-linejoin:miter;stroke-miterlimit:4;stroke-dasharray:none;stroke-opacity:1"
           d="M 743.64187,340.22181 C 747.77321,340.22181 794.25083,341.25464 794.25083,341.25464"
           id="path6754" />
        <path
           style="fill:none;fill-rule:evenodd;stroke:#0c4504;stroke-width:15;stroke-linecap:round;stroke-linejoin:miter;stroke-miterlimit:4;stroke-dasharray:none;stroke-opacity:1"
           d="M 749.83889,82.012825 L 826.78516,111.44865"
           id="path6756"
           sodipodi:nodetypes="cc" />
        <path
           style="fill:none;fill-rule:evenodd;stroke:#0c4504;stroke-width:15;stroke-linecap:round;stroke-linejoin:miter;stroke-miterlimit:4;stroke-dasharray:none;stroke-opacity:1"
           d="M 760.68366,53.609837 L 827.818,82.012825"
           id="path6758" />
        <path
           style="fill:none;fill-rule:evenodd;stroke:#0c4504;stroke-width:10;stroke-linecap:round;stroke-linejoin:miter;stroke-miterlimit:4;stroke-dasharray:none;stroke-opacity:1"
           d="M 768.94635,20.042669 L 826.26874,45.863568"
           id="path6760" />
      </g>
    </g>
    <g
       id="Stem 2">
      <path
         sodipodi:nodetypes="cccccccccccccccccc"
         id="path2500"
         d="M 499.87204,-246.64739 L 544.26857,-27.95337 C 520.19935,22.421761 551.08809,53.905097 567.28899,90.437375 L 588.6651,282.82234 C 575.68169,313.3879 574.66228,334.98045 588.6651,345.30634 C 578.84738,362.0719 581.06214,380.10403 596.88668,399.56877 L 645.32977,768.77935 C 640.71543,805.88639 617.31662,834.74658 664.30363,894.50786 L 692.257,1195.4177 L 761.31827,1139.5109 L 731.72058,869.84312 C 731.83063,834.65717 723.55705,805.56841 708.82605,781.17595 L 669.23658,366.68245 C 669.40198,342.56582 667.02187,318.44918 644.57184,294.33255 L 613.32983,41.107898 C 613.14651,6.2852854 625.13503,-35.353554 593.59804,-52.618109 L 570.57762,-222.61468 L 499.87204,-246.64739 z"
         style="fill:#1cac04;fill-opacity:1;fill-rule:evenodd;stroke:#0c4504;stroke-width:15;stroke-linecap:butt;stroke-linejoin:miter;stroke-miterlimit:4;stroke-dasharray:none;stroke-opacity:1" />
      <g
         style="fill:none;fill-opacity:1;stroke:#0c4504;stroke-opacity:1"
         id="g3302">
        <path
           style="fill:none;fill-opacity:1;fill-rule:evenodd;stroke:#0c4504;stroke-width:15;stroke-linecap:round;stroke-linejoin:miter;stroke-miterlimit:4;stroke-dasharray:none;stroke-opacity:1"
           d="M 531.95418,23.883689 L 502.598,40.0802"
           id="path3326" />
        <path
           style="fill:none;fill-opacity:1;fill-rule:evenodd;stroke:#0c4504;stroke-width:15;stroke-linecap:round;stroke-linejoin:miter;stroke-miterlimit:4;stroke-dasharray:none;stroke-opacity:1"
           d="M 642.29292,802.32853 C 644.31748,801.31625 710.11581,783.60132 710.11581,783.60132"
           id="path2502" />
        <path
           style="fill:none;fill-opacity:1;fill-rule:evenodd;stroke:#0c4504;stroke-width:15;stroke-linecap:round;stroke-linejoin:miter;stroke-miterlimit:4;stroke-dasharray:none;stroke-opacity:1"
           d="M 639.76221,836.23998 C 643.81134,835.73384 722.76934,815.4882 722.76934,815.4882"
           id="path2504" />
        <path
           style="fill:none;fill-opacity:1;fill-rule:evenodd;stroke:#0c4504;stroke-width:15;stroke-linecap:round;stroke-linejoin:miter;stroke-miterlimit:4;stroke-dasharray:none;stroke-opacity:1"
           d="M 652.92188,872.17599 C 657.98329,872.17599 729.85531,853.44877 729.85531,853.44877"
           id="path2506" />
        <path
           style="fill:none;fill-opacity:1;fill-rule:evenodd;stroke:#0c4504;stroke-width:15;stroke-linecap:round;stroke-linejoin:miter;stroke-miterlimit:4;stroke-dasharray:none;stroke-opacity:1"
           d="M 588.64197,378.68852 C 593.19724,378.68852 666.08154,358.94902 666.08154,358.94902"
           id="path2508" />
        <path
           style="fill:none;fill-opacity:1;fill-rule:evenodd;stroke:#0c4504;stroke-width:10;stroke-linecap:round;stroke-linejoin:miter;stroke-miterlimit:4;stroke-dasharray:none;stroke-opacity:1"
           d="M 589.14811,348.8262 C 596.23409,348.32006 663.55084,327.56828 663.55084,327.56828"
           id="path2510" />
        <path
           style="fill:none;fill-opacity:1;fill-rule:evenodd;stroke:#0c4504;stroke-width:20;stroke-linecap:round;stroke-linejoin:miter;stroke-miterlimit:4;stroke-dasharray:none;stroke-opacity:1"
           d="M 580.03758,313.39634 L 645.8359,297.19982"
           id="path2512" />
        <path
           style="fill:none;fill-opacity:1;fill-rule:evenodd;stroke:#0c4504;stroke-width:15;stroke-linecap:round;stroke-linejoin:miter;stroke-miterlimit:4;stroke-dasharray:none;stroke-opacity:1"
           d="M 555.74281,64.881109 C 558.77965,63.362686 612.4306,31.475803 612.4306,31.475803"
           id="path2514" />
        <path
           style="fill:none;fill-opacity:1;fill-rule:evenodd;stroke:#0c4504;stroke-width:15;stroke-linecap:round;stroke-linejoin:miter;stroke-miterlimit:4;stroke-dasharray:none;stroke-opacity:1"
           d="M 539.5463,22.871407 C 545.11385,21.352984 612.93674,-20.656719 612.93674,-20.656719"
           id="path2516" />
        <path
           style="fill:none;fill-opacity:1;fill-rule:evenodd;stroke:#0c4504;stroke-width:15;stroke-linecap:round;stroke-linejoin:miter;stroke-miterlimit:4;stroke-dasharray:none;stroke-opacity:1"
           d="M 544.10157,-26.22427 C 547.13841,-26.22427 593.19724,-52.03746 593.19724,-52.03746"
           id="path2518" />
      </g>
    </g>
    <g
       id="Leaves"
       style="fill:#1cac04;fill-opacity:1;stroke:#0c4504;stroke-width:10;stroke-miterlimit:6;stroke-dasharray:none;stroke-opacity:1">
      <path
         sodipodi:nodetypes="ccc"
         id="path6650"
         d="M 484.21969,-157.72936 C 611.13134,-118.52444 714.1335,-64.52608 756.07839,28.086508 C 636.21268,8.9313794 545.50561,-89.460164 484.21969,-157.72936 z" />
      <path
         sodipodi:nodetypes="ccc"
         id="path6652"
         d="M 476.89689,199.2568 C 572.68667,132.28122 659.21255,-12.35118 760.65513,34.49395 C 748.80062,89.482103 692.87681,164.09154 476.89689,199.2568 z" />
      <path
         sodipodi:nodetypes="ccc"
         id="path6654"
         d="M 205.95356,-179.69774 C 328.28846,-104.7942 481.63482,-60.864684 501.61133,32.663254 C 406.15952,22.019252 263.21233,-83.238508 205.95356,-179.69774 z" />
      <path
         sodipodi:nodetypes="ccc"
         id="path6656"
         d="M 173.00099,248.68565 C 243.16099,181.71007 349.82455,1.3790593 504.35738,39.070702 C 457.7196,73.92117 274.56227,206.1976 173.00099,248.68565 z" />
      <path
         sodipodi:nodetypes="ccc"
         id="path6658"
         d="M 338.67918,424.43268 C 418.90802,254.02265 385.52317,167.05725 507.10343,37.240008 C 533.69358,73.921166 445.73256,267.52599 338.67918,424.43268 z" />
      <path
         sodipodi:nodetypes="ccc"
         id="path6660"
         d="M 132.72563,225.80192 C 201.05493,297.04406 390.09991,496.58294 355.15547,572.71925 C 243.52791,505.05061 161.97433,354.48416 132.72563,225.80192 z" />
      <path
         sodipodi:nodetypes="ccc"
         id="path6662"
         d="M 78.720031,656.01601 C 197.39353,546.93437 303.14175,503.90573 358.81687,572.71925 C 325.90933,606.65436 231.54086,665.70286 78.720031,656.01601 z" />
      <path
         sodipodi:nodetypes="ccc"
         id="path6664"
         d="M 728.61791,273.40007 C 678.86717,416.95479 565.84694,523.12806 505.27273,566.3118 C 489.75682,441.89152 605.00331,435.95023 728.61791,273.40007 z" />
      <path
         sodipodi:nodetypes="ccc"
         id="path6666"
         d="M 748.75559,510.4755 C 674.29043,565.24136 560.35484,589.03321 508.01877,567.22716 C 595.02197,481.25154 653.51681,506.43212 748.75559,510.4755 z" />
      <path
         sodipodi:nodetypes="ccc"
         id="path6668"
         d="M 930.91011,723.75185 C 884.82073,590.87114 790.10748,558.82669 807.33794,413.44851 C 867.79602,424.4999 897.91503,578.7447 930.91011,723.75185 z" />
      <path
         sodipodi:nodetypes="ccc"
         id="path6670"
         d="M 666.37421,679.81509 C 730.12673,614.67022 694.96086,457.71583 789.03096,437.24759 C 792.73739,572.78646 716.6759,653.80333 666.37421,679.81509 z" />
      <path
         sodipodi:nodetypes="ccc"
         id="path6672"
         d="M 350.24027,1007.9677 C 305.98159,1005.0666 217.67578,995.90589 190.96948,854.1891 C 273.39594,895.44702 332.80612,918.79689 350.24027,1007.9677 z" />
      <path
         sodipodi:nodetypes="ccc"
         id="path6674"
         d="M 350.24027,1007.9677 C 255.63739,1118.5699 214.01438,1152.4306 17.053145,1223.0748 C 95.818209,1179.2053 227.54097,995.68622 350.24027,1007.9677 z" />
      <path
         sodipodi:nodetypes="ccc"
         id="path6676"
         d="M 350.24027,1007.9677 C 372.80208,1054.4955 369.62374,1184.4678 300.81138,1305.4562 C 266.07315,1196.5969 306.261,1035.9616 350.24027,1007.9677 z" />
      <path
         sodipodi:nodetypes="ccc"
         id="path6678"
         d="M 752.07854,850.52765 C 630.93053,963.87589 594.79962,1027.9431 496.69609,1003.391 C 537.01649,960.43681 570.79689,895.91316 752.07854,850.52765 z" />
    </g>
  </g>
  <g
     inkscape:groupmode="layer"
     id="chedi"
     inkscape:label="chedi"
     style="display:inline"
     sodipodi:insensitive="true"
     transform="translate(942.1196,707.72164)">
    <path
       style="opacity:1;fill:#f8ef08;fill-opacity:1;fill-rule:evenodd;stroke:#cd8301;stroke-width:8;stroke-linecap:butt;stroke-linejoin:round;stroke-miterlimit:4;stroke-dasharray:none;stroke-opacity:1"
       d="M -408.58294,882.56148 L 56.600234,896.71154 L 227.07729,869.33182 L 150.47997,785.27983 C 164.22305,776.79194 172.27842,759.39331 150.48847,751.67344 C 194.19949,682.1588 115.20663,619.36548 60.137749,557.11013 C 68.477974,543.54106 61.573208,531.49648 49.525205,519.96623 C 67.804433,489.77847 45.515058,478.52273 35.375146,461.59724 C 36.582427,450.5729 31.267002,443.89702 26.53136,436.83463 C 34.510093,420.91029 24.999078,409.98303 19.456331,397.92197 C 51.530291,369.74308 -18.304771,259.03819 -28.300117,231.65878 C -29.816779,214.35008 -35.007962,206.01831 -34.901209,205.83242 C -18.584901,177.42031 -42.12607,96.775795 -54.831477,70.701868 C -48.047394,56.292632 -40.102494,41.84822 -60.137749,28.251692 C -43.87827,5.8887013 -60.082668,6.0057145 -83.131594,-54.879902 C -100.47275,17.48989 -111.29343,-2.5483981 -93.744138,31.789207 C -112.3445,43.834684 -104.82366,57.94236 -91.975381,72.470625 C -105.3367,112.45444 -147.41722,139.67417 -127.35053,194.51488 L -132.6568,224.58375 C -156.89369,283.60174 -241.89702,348.14394 -203.40709,401.45949 C -210.2809,410.44962 -220.00639,417.3658 -205.17585,442.14091 C -217.59573,452.75345 -212.06576,463.366 -208.71336,473.97854 C -227.8234,484.53629 -253.84869,491.14246 -231.70721,525.2725 L -233.47597,557.11013 C -306.30158,638.30371 -369.35835,687.7307 -343.13892,741.06089 L -345.36909,778.4355 C -375.32263,803.96231 -394.86398,842.82941 -408.58294,882.56148 z"
       id="path3336"
       sodipodi:nodetypes="cccccccccccsccccccccccccccc" />
    <g
       id="g3364"
       style="fill:none;stroke:#cd8301;stroke-width:10;stroke-linecap:round;stroke-linejoin:round;stroke-miterlimit:4;stroke-dasharray:none;stroke-opacity:1">
      <path
         sodipodi:nodetypes="cccc"
         id="path3338"
         d="M 60.099465,897.60606 C 40.895276,860.21659 22.954905,821.5633 0,787.92454 C 38.835416,643.47732 -27.124617,658.37725 -48.079572,570.06397 C -5.481753,286.34783 -36.469269,344.26416 -54.089519,228.99951"
         style="fill:none;stroke-linecap:round" />
      <path
         id="path3340"
         d="M -350.07938,777.40713 L 0,787.92454 L 152.06215,786.88225"
         sodipodi:nodetypes="ccc"
         style="fill:none;stroke-linecap:round" />
      <path
         id="path3342"
         d="M -344.06944,741.34745 L 6.0099465,754.86983 L 149.88301,751.86486"
         sodipodi:nodetypes="ccc"
         style="fill:none;stroke-linecap:round" />
      <path
         id="path3344"
         d="M -237.39289,553.53662 C -223.87051,553.53662 -49.582059,570.06397 -49.582059,570.06397 L 61.601952,553.53662"
         style="fill:none;stroke-linecap:round" />
      <path
         id="path3346"
         d="M -232.88543,526.49186 L -45.074599,538.51176 L 49.582059,524.98938"
         style="fill:none;stroke-linecap:round" />
      <path
         id="path3348"
         d="M -210.34813,467.89488 C -199.83072,467.89488 -36.059679,473.90483 -36.059679,473.90483 L 33.054706,460.38245"
         style="fill:none;stroke-linecap:round" />
      <path
         id="path3350"
         d="M -207.34315,440.85012 C -198.32823,440.85012 -31.552219,446.86007 -31.552219,446.86007 L 30.049733,433.33769"
         style="fill:none;stroke-linecap:round" />
      <path
         id="path3352"
         d="M -202.83569,397.27801 L -30.049733,406.29293 L 21.034813,397.27801"
         style="fill:none;stroke-linecap:round" />
      <path
         sodipodi:nodetypes="ccc"
         id="path3354"
         d="M -130.71634,219.98459 C -117.19396,224.49205 -33.054706,232.00448 -33.054706,232.00448 L -33.054706,232.00448"
         style="fill:none;stroke-linecap:round" />
      <path
         id="path3356"
         d="M -126.20888,195.9448 L -36.059679,204.95972"
         style="fill:none;stroke-linecap:round" />
      <path
         id="path3358"
         d="M -91.651684,72.740901 L -55.592005,69.735928"
         style="fill:none;stroke-linecap:round" />
      <path
         sodipodi:nodetypes="cc"
         id="path3360"
         d="M -96.159144,33.676249 C -81.819526,33.113947 -68.954552,32.060097 -61.601952,29.168789"
         style="fill:none;stroke-linecap:round" />
      <path
         sodipodi:nodetypes="cc"
         id="path3362"
         d="M -78.058876,32.608075 C -67.225997,89.424406 -51.17991,146.44124 -59.571247,202.51818"
         style="fill:none;stroke-linecap:round" />
    </g>
    <path
       style="fill:none;fill-opacity:1;fill-rule:evenodd;stroke:#ef0829;stroke-width:25;stroke-linecap:round;stroke-linejoin:bevel;stroke-miterlimit:4;stroke-dasharray:none;stroke-opacity:1"
       d="M -128.14888,37.239998 C -191.57865,-119.94959 43.575212,-105.22413 -39.360013,49.139537"
       id="path2436"
       sodipodi:nodetypes="cc" />
    <g
       id="g6630"
       style="fill:none;stroke:#ef0829;stroke-width:20;stroke-linecap:round;stroke-miterlimit:4;stroke-dasharray:none;stroke-opacity:1">
      <path
         id="path3208"
         d="M -270.02799,319.16753 L -126.31818,39.070697"
         style="fill:none;fill-rule:evenodd;stroke:#ef0829;stroke-width:20;stroke-linecap:round;stroke-linejoin:miter;stroke-miterlimit:4;stroke-dasharray:none;stroke-opacity:1" />
      <path
         id="path3212"
         d="M -353.32476,272.48472 L -130.89493,32.663253"
         style="fill:none;fill-rule:evenodd;stroke:#ef0829;stroke-width:20;stroke-linecap:round;stroke-linejoin:miter;stroke-miterlimit:4;stroke-dasharray:none;stroke-opacity:1" />
      <path
         id="path3214"
         d="M -375.29314,171.79632 L -135.47167,17.102318"
         style="fill:none;fill-rule:evenodd;stroke:#ef0829;stroke-width:20;stroke-linecap:round;stroke-linejoin:miter;stroke-miterlimit:4;stroke-dasharray:none;stroke-opacity:1" />
      <path
         id="path3216"
         d="M -346.91732,57.377679 L -140.04842,1.5413823"
         style="fill:none;fill-rule:evenodd;stroke:#ef0829;stroke-width:20;stroke-linecap:round;stroke-linejoin:miter;stroke-miterlimit:4;stroke-dasharray:none;stroke-opacity:1" />
      <path
         id="path3218"
         d="M -288.33498,-22.257695 L -140.04842,-14.019553"
         style="fill:none;fill-rule:evenodd;stroke:#ef0829;stroke-width:20;stroke-linecap:round;stroke-linejoin:miter;stroke-miterlimit:4;stroke-dasharray:none;stroke-opacity:1" />
      <path
         id="path3220"
         d="M -227.92193,-83.586087 L -136.38702,-39.649329"
         style="fill:none;fill-rule:evenodd;stroke:#ef0829;stroke-width:20;stroke-linecap:round;stroke-linejoin:miter;stroke-miterlimit:4;stroke-dasharray:none;stroke-opacity:1" />
      <path
         id="path3222"
         d="M -183.06983,-122.03075 L -125.40283,-57.040962"
         style="fill:none;fill-rule:evenodd;stroke:#ef0829;stroke-width:20;stroke-linecap:round;stroke-linejoin:miter;stroke-miterlimit:4;stroke-dasharray:none;stroke-opacity:1" />
      <path
         id="path3224"
         d="M -135.47167,-150.40657 L -105.26515,-67.109802"
         style="fill:none;fill-rule:evenodd;stroke:#ef0829;stroke-width:20;stroke-linecap:round;stroke-linejoin:miter;stroke-miterlimit:4;stroke-dasharray:none;stroke-opacity:1" />
      <path
         id="path3227"
         d="M -86.042818,-176.9517 L -86.958167,-74.432595"
         style="fill:none;fill-rule:evenodd;stroke:#ef0829;stroke-width:20;stroke-linecap:round;stroke-linejoin:miter;stroke-miterlimit:4;stroke-dasharray:none;stroke-opacity:1" />
      <path
         id="path3229"
         d="M -21.968379,-185.18984 L -64.989788,-73.517246"
         style="fill:none;fill-rule:evenodd;stroke:#ef0829;stroke-width:20;stroke-linecap:round;stroke-linejoin:miter;stroke-miterlimit:4;stroke-dasharray:none;stroke-opacity:1" />
      <path
         id="path3231"
         d="M 66.820486,-184.27449 L -45.767456,-70.771199"
         style="fill:none;fill-rule:evenodd;stroke:#ef0829;stroke-width:20;stroke-linecap:round;stroke-linejoin:miter;stroke-miterlimit:4;stroke-dasharray:none;stroke-opacity:1" />
      <path
         id="path3233"
         d="M 132.72562,-122.9461 L -28.375823,-53.379565"
         style="fill:none;fill-rule:evenodd;stroke:#ef0829;stroke-width:20;stroke-linecap:round;stroke-linejoin:miter;stroke-miterlimit:4;stroke-dasharray:none;stroke-opacity:1" />
      <path
         id="path3235"
         d="M 205.0382,-70.771199 L -17.391633,-29.580488"
         style="fill:none;fill-rule:evenodd;stroke:#ef0829;stroke-width:20;stroke-linecap:round;stroke-linejoin:miter;stroke-miterlimit:4;stroke-dasharray:none;stroke-opacity:1" />
      <path
         id="path3237"
         d="M 224.26054,25.34046 L -14.645586,-3.0353633"
         style="fill:none;fill-rule:evenodd;stroke:#ef0829;stroke-width:20;stroke-linecap:round;stroke-linejoin:miter;stroke-miterlimit:4;stroke-dasharray:none;stroke-opacity:1" />
      <path
         id="path3239"
         d="M 205.95355,135.18236 L -23.799077,24.425111"
         style="fill:none;fill-rule:evenodd;stroke:#ef0829;stroke-width:20;stroke-linecap:round;stroke-linejoin:miter;stroke-miterlimit:4;stroke-dasharray:none;stroke-opacity:1" />
      <path
         id="path3241"
         d="M 157.44005,204.74889 L -30.206521,42.732093"
         style="fill:none;fill-rule:evenodd;stroke:#ef0829;stroke-width:20;stroke-linecap:round;stroke-linejoin:miter;stroke-miterlimit:4;stroke-dasharray:none;stroke-opacity:1" />
      <path
         sodipodi:nodetypes="cc"
         id="path3243"
         d="M 91.534913,279.80752 L -41.190711,52.800934"
         style="fill:none;fill-rule:evenodd;stroke:#ef0829;stroke-width:20;stroke-linecap:round;stroke-linejoin:miter;marker-start:none;stroke-miterlimit:4;stroke-dasharray:none;stroke-opacity:1" />
    </g>
  </g>
  <g
     inkscape:label="Frames"
     inkscape:groupmode="layer"
     id="frames"
     style="display:inline"
     sodipodi:insensitive="true"
     transform="translate(942.1196,707.72164)">
    <path
       sodipodi:type="arc"
       style="opacity:1;fill:none;fill-opacity:1;fill-rule:evenodd;stroke:#f00808;stroke-width:15;stroke-linecap:round;stroke-linejoin:round;stroke-miterlimit:3.86369991;stroke-dasharray:none;stroke-opacity:1"
       id="path3244"
       sodipodi:cx="276.56619"
       sodipodi:cy="546.30487"
       sodipodi:rx="1198.4535"
       sodipodi:ry="1231.7983"
       d="M 1475.0197,546.30487 A 1198.4535,1231.7983 0 1 1 -921.8873,546.30487 A 1198.4535,1231.7983 0 1 1 1475.0197,546.30487 z"
       transform="translate(-12.7323,-14.728174)" />
    <path
       style="opacity:1;fill:#efef0a;fill-opacity:1;fill-rule:evenodd;stroke:#0831bd;stroke-width:15;stroke-linecap:round;stroke-linejoin:round;stroke-miterlimit:3.86369991;stroke-dasharray:none;stroke-opacity:1"
       d="M 266.46875,-665.46875 C -371.77047,-665.46875 -889.74999,-130.68727 -889.75,528.21875 C -889.75,1187.1247 -371.77046,1721.875 266.46875,1721.875 C 904.70797,1721.875 1422.7187,1187.1247 1422.7188,528.21875 C 1422.7187,-130.68725 904.70797,-665.46877 266.46875,-665.46875 z M 280,-276.21875 C 707.40575,-276.21875 1054.2812,80.265743 1054.2812,519.5 C 1054.2813,958.73423 707.40574,1315.2188 280,1315.2188 C -147.40574,1315.2188 -494.28125,958.73426 -494.28125,519.5 C -494.28125,80.265717 -147.40574,-276.21875 280,-276.21875 z"
       id="path3226" />
  </g>
  <g
     inkscape:groupmode="layer"
     id="border"
     inkscape:label="Border"
     style="display:inline"
     sodipodi:insensitive="true"
     transform="translate(942.1196,707.72164)">
    <g
       id="g3286">
      <path
         sodipodi:nodetypes="ccccccccc"
         id="path3277"
         d="M -736.83657,661.16632 C -705.71154,659.92363 -705.446,598.2693 -644.64161,611.99568 C -689.87199,562.90651 -627.28727,549.56824 -621.14094,445.32165 C -594.70584,523.80724 -559.72666,589.32431 -603.78659,611.63413 C -557.19293,593.05396 -539.79355,619.23439 -508.69924,639.47339 C -537.77465,697.00179 -565.49235,687.45528 -596.55561,679.24376 C -557.84259,703.44875 -579.59301,779.15964 -590.40928,845.55624 C -628.25029,789.51107 -675.18574,731.76695 -628.37191,691.53642 C -668.84362,714.36987 -687.65474,672.87006 -736.83657,661.16632 z"
         style="opacity:1;fill:#f00608;fill-opacity:1;fill-rule:evenodd;stroke:#000000;stroke-width:8;stroke-linecap:round;stroke-linejoin:round;stroke-miterlimit:4;stroke-dasharray:none;stroke-opacity:1" />
      <g
         transform="translate(-3.5809593,3.5809593)"
         id="g3279">
        <path
           sodipodi:type="arc"
           style="opacity:1;fill:#f00808;fill-opacity:1;fill-rule:evenodd;stroke:#000000;stroke-width:7;stroke-linecap:round;stroke-linejoin:round;stroke-miterlimit:3.86369991;stroke-dasharray:none;stroke-opacity:1"
           id="path3267"
           sodipodi:cx="-614.10632"
           sodipodi:cy="643.21338"
           sodipodi:rx="34.095734"
           sodipodi:ry="32.180244"
           d="M -580.01059,643.21338 A 34.095734,32.180244 0 1 1 -648.20206,643.21338 A 34.095734,32.180244 0 1 1 -580.01059,643.21338 z"
           transform="translate(-0.7661963,-0.7661963)" />
        <path
           style="fill:none;fill-rule:evenodd;stroke:#000000;stroke-width:10;stroke-linecap:butt;stroke-linejoin:miter;stroke-miterlimit:4;stroke-dasharray:none;stroke-opacity:1"
           d="M -615.64541,550.0832 L -615.64541,609.76585"
           id="path3269"
           sodipodi:nodetypes="cc" />
        <path
           style="fill:none;fill-rule:evenodd;stroke:#000000;stroke-width:10;stroke-linecap:butt;stroke-linejoin:miter;stroke-miterlimit:4;stroke-dasharray:none;stroke-opacity:1"
           d="M -579.11255,642.9553 L -540.69927,642.63684"
           id="path3271"
           sodipodi:nodetypes="cc" />
        <path
           style="fill:none;fill-rule:evenodd;stroke:#000000;stroke-width:10;stroke-linecap:butt;stroke-linejoin:miter;stroke-miterlimit:4;stroke-dasharray:none;stroke-opacity:1"
           d="M -614.3601,673.18123 L -614.4032,729.87975"
           id="path3273"
           sodipodi:nodetypes="cc" />
        <path
           style="fill:none;fill-rule:evenodd;stroke:#000000;stroke-width:10;stroke-linecap:butt;stroke-linejoin:miter;stroke-miterlimit:4;stroke-dasharray:none;stroke-opacity:1"
           d="M -694.72728,642.5078 L -651.58804,643.31709"
           id="path3275"
           sodipodi:nodetypes="cc" />
      </g>
    </g>
    <g
       id="g3295"
       transform="matrix(-1,0,0,1,559.25049,-5.7382812e-5)">
      <path
         style="opacity:1;fill:#f00608;fill-opacity:1;fill-rule:evenodd;stroke:#000000;stroke-width:8;stroke-linecap:round;stroke-linejoin:round;stroke-miterlimit:4;stroke-dasharray:none;stroke-opacity:1"
         d="M -736.83657,661.16632 C -705.71154,659.92363 -705.446,598.2693 -644.64161,611.99568 C -689.87199,562.90651 -627.28727,549.56824 -621.14094,445.32165 C -594.70584,523.80724 -559.72666,589.32431 -603.78659,611.63413 C -557.19293,593.05396 -539.79355,619.23439 -508.69924,639.47339 C -537.77465,697.00179 -565.49235,687.45528 -596.55561,679.24376 C -557.84259,703.44875 -579.59301,779.15964 -590.40928,845.55624 C -628.25029,789.51107 -675.18574,731.76695 -628.37191,691.53642 C -668.84362,714.36987 -687.65474,672.87006 -736.83657,661.16632 z"
         id="path3297"
         sodipodi:nodetypes="ccccccccc" />
      <g
         id="g3299"
         transform="translate(-3.5809593,3.5809593)">
        <path
           transform="translate(-0.7661963,-0.7661963)"
           d="M -580.01059,643.21338 A 34.095734,32.180244 0 1 1 -648.20206,643.21338 A 34.095734,32.180244 0 1 1 -580.01059,643.21338 z"
           sodipodi:ry="32.180244"
           sodipodi:rx="34.095734"
           sodipodi:cy="643.21338"
           sodipodi:cx="-614.10632"
           id="path3301"
           style="opacity:1;fill:#f00808;fill-opacity:1;fill-rule:evenodd;stroke:#000000;stroke-width:7;stroke-linecap:round;stroke-linejoin:round;stroke-miterlimit:3.86369991;stroke-dasharray:none;stroke-opacity:1"
           sodipodi:type="arc" />
        <path
           sodipodi:nodetypes="cc"
           id="path3303"
           d="M -615.64541,550.0832 L -615.64541,609.76585"
           style="fill:none;fill-rule:evenodd;stroke:#000000;stroke-width:10;stroke-linecap:butt;stroke-linejoin:miter;stroke-miterlimit:4;stroke-dasharray:none;stroke-opacity:1" />
        <path
           sodipodi:nodetypes="cc"
           id="path3305"
           d="M -579.11255,642.9553 L -540.69927,642.63684"
           style="fill:none;fill-rule:evenodd;stroke:#000000;stroke-width:10;stroke-linecap:butt;stroke-linejoin:miter;stroke-miterlimit:4;stroke-dasharray:none;stroke-opacity:1" />
        <path
           sodipodi:nodetypes="cc"
           id="path3307"
           d="M -614.3601,673.18123 L -614.4032,729.87975"
           style="fill:none;fill-rule:evenodd;stroke:#000000;stroke-width:10;stroke-linecap:butt;stroke-linejoin:miter;stroke-miterlimit:4;stroke-dasharray:none;stroke-opacity:1" />
        <path
           sodipodi:nodetypes="cc"
           id="path3309"
           d="M -694.72728,642.5078 L -651.58804,643.31709"
           style="fill:none;fill-rule:evenodd;stroke:#000000;stroke-width:10;stroke-linecap:butt;stroke-linejoin:miter;stroke-miterlimit:4;stroke-dasharray:none;stroke-opacity:1" />
      </g>
    </g>
    <text
       xml:space="preserve"
       style="font-size:210px;font-style:normal;font-variant:normal;font-weight:normal;font-stretch:normal;text-align:justify;line-height:100%;writing-mode:lr-tb;text-anchor:start;fill:#0831bd;fill-opacity:1;stroke:none;stroke-width:1px;stroke-linecap:butt;stroke-linejoin:miter;stroke-opacity:1;font-family:Arial Unicode MS;-inkscape-font-specification:Arial Unicode MS"
       id="text3311"
       sodipodi:linespacing="100%"><textPath
         xlink:href="#path3319"
         id="textPath3321"><tspan
   id="tspan3315"
   style="font-size:210px;font-style:normal;font-variant:normal;font-weight:normal;font-stretch:normal;text-align:justify;line-height:100%;writing-mode:lr-tb;text-anchor:start;fill:#0831bd;fill-opacity:1;font-family:Arial Unicode MS;-inkscape-font-specification:Arial Unicode MS">เทศบาลตำบลบ้านไผ่</tspan></textPath></text>
    <path
       style="fill:none;fill-rule:evenodd;stroke:none;stroke-width:1px;stroke-linecap:butt;stroke-linejoin:miter;stroke-opacity:1"
       d="M -458.0875,43.688745 C -98.371353,-491.24203 578.48229,-531.67921 991.05469,34.87937"
       id="path3319"
       sodipodi:nodetypes="cc" />
    <path
       style="fill:none;fill-rule:evenodd;stroke:none;stroke-width:1px;stroke-linecap:butt;stroke-linejoin:miter;stroke-opacity:1"
       d="M -330.35156,1356.2856 C 30.883006,1654.0725 507.86842,1637.7892 845.7,1387.1184"
       id="path3324"
       sodipodi:nodetypes="cc" />
    <text
       xml:space="preserve"
       style="font-size:200px;font-style:normal;font-variant:normal;font-weight:normal;font-stretch:normal;text-align:justify;line-height:125%;writing-mode:lr-tb;text-anchor:start;fill:#0831bd;fill-opacity:1;stroke:none;stroke-width:1px;stroke-linecap:butt;stroke-linejoin:miter;stroke-opacity:1;font-family:Arial Unicode MS;-inkscape-font-specification:Arial Unicode MS"
       id="text3326"
       sodipodi:linespacing="125%"><textPath
         xlink:href="#path3324"
         id="textPath3332"><tspan
   id="tspan3330"
   style="font-size:200px;font-style:normal;font-variant:normal;font-weight:normal;font-stretch:normal;text-align:justify;line-height:125%;writing-mode:lr-tb;text-anchor:start;fill:#0831bd;fill-opacity:1;stroke:none;stroke-opacity:1;font-family:Arial Unicode MS;-inkscape-font-specification:Arial Unicode MS">จังหวัดขอนแก่น</tspan></textPath></text>
  </g>
</svg>
