<?xml version="1.0" encoding="UTF-8" standalone="no"?>
<!-- Created with Inkscape (http://www.inkscape.org/) -->
<svg
   xmlns:dc="http://purl.org/dc/elements/1.1/"
   xmlns:cc="http://creativecommons.org/ns#"
   xmlns:rdf="http://www.w3.org/1999/02/22-rdf-syntax-ns#"
   xmlns:svg="http://www.w3.org/2000/svg"
   xmlns="http://www.w3.org/2000/svg"
   xmlns:xlink="http://www.w3.org/1999/xlink"
   xmlns:sodipodi="http://sodipodi.sourceforge.net/DTD/sodipodi-0.dtd"
   xmlns:inkscape="http://www.inkscape.org/namespaces/inkscape"
   width="210mm"
   height="297mm"
   id="svg2"
   sodipodi:version="0.32"
   inkscape:version="0.46"
   sodipodi:docname="Khon Kae - Ban Phai - Ban Phai.svg"
   inkscape:output_extension="org.inkscape.output.svg.inkscape">
  <defs
     id="defs4">
    <inkscape:perspective
       sodipodi:type="inkscape:persp3d"
       inkscape:vp_x="0 : 526.18109 : 1"
       inkscape:vp_y="0 : 1000 : 0"
       inkscape:vp_z="744.09448 : 526.18109 : 1"
       inkscape:persp3d-origin="372.04724 : 350.78739 : 1"
       id="perspective10" />
    <inkscape:perspective
       id="perspective2448"
       inkscape:persp3d-origin="372.04724 : 350.78739 : 1"
       inkscape:vp_z="744.09448 : 526.18109 : 1"
       inkscape:vp_y="0 : 1000 : 0"
       inkscape:vp_x="0 : 526.18109 : 1"
       sodipodi:type="inkscape:persp3d" />
  </defs>
  <sodipodi:namedview
     id="base"
     pagecolor="#ffffff"
     bordercolor="#666666"
     borderopacity="1.0"
     inkscape:pageopacity="0.0"
     inkscape:pageshadow="2"
     inkscape:zoom="0.45406172"
     inkscape:cx="-414.30746"
     inkscape:cy="780.88941"
     inkscape:document-units="px"
     inkscape:current-layer="layer4"
     showgrid="false"
     inkscape:window-width="1440"
     inkscape:window-height="853"
     inkscape:window-x="-4"
     inkscape:window-y="-4" />
  <metadata
     id="metadata7">
    <rdf:RDF>
      <cc:Work
         rdf:about="">
        <dc:format>image/svg+xml</dc:format>
        <dc:type
           rdf:resource="http://purl.org/dc/dcmitype/StillImage" />
      </cc:Work>
    </rdf:RDF>
  </metadata>
  <g
     inkscape:groupmode="layer"
     id="layer2"
     inkscape:label="bitmap"
     sodipodi:insensitive="true"
     style="display:inline">
    <image
       y="-877.13782"
       x="-1059.5"
       id="image2450"
       height="2819"
       width="2819"
       sodipodi:absref="C:\Documents and Settings\andy\My Documents\My Dropbox\Misc\Ban Phai, Khon Kaen.gif"
       xlink:href="C:\Documents and Settings\andy\My Documents\My Dropbox\Misc\Ban Phai, Khon Kaen.gif" />
  </g>
  <g
     inkscape:groupmode="layer"
     id="layer4"
     inkscape:label="chedi"
     style="display:inline"
     sodipodi:insensitive="true">
    <path
       style="opacity:1;fill:#f8ef08;fill-opacity:1;fill-rule:evenodd;stroke:#cd8301;stroke-width:8;stroke-linecap:butt;stroke-linejoin:round;stroke-miterlimit:4;stroke-dasharray:none;stroke-opacity:1"
       d="M -408.58294,882.56148 L 56.600234,896.71154 L 227.07729,869.33182 L 150.47997,785.27983 C 164.22305,776.79194 172.27842,759.39331 150.48847,751.67344 C 194.19949,682.1588 115.20663,619.36548 60.137749,557.11013 C 68.477974,543.54106 61.573208,531.49648 49.525205,519.96623 C 67.804433,489.77847 45.515058,478.52273 35.375146,461.59724 C 36.582427,450.5729 31.267002,443.89702 26.53136,436.83463 C 34.510093,420.91029 24.999078,409.98303 19.456331,397.92197 C 51.530291,369.74308 -18.304771,259.03819 -28.300117,231.65878 C -29.816779,214.35008 -35.007962,206.01831 -34.901209,205.83242 C -18.584901,177.42031 -42.12607,96.775795 -54.831477,70.701868 C -48.047394,56.292632 -40.102494,41.84822 -60.137749,28.251692 C -43.87827,5.8887013 -60.082668,6.0057145 -83.131594,-54.879902 C -100.47275,17.48989 -111.29343,-2.5483981 -93.744138,31.789207 C -112.3445,43.834684 -104.82366,57.94236 -91.975381,72.470625 C -105.3367,112.45444 -147.41722,139.67417 -127.35053,194.51488 L -132.6568,224.58375 C -156.89369,283.60174 -241.89702,348.14394 -203.40709,401.45949 C -210.2809,410.44962 -220.00639,417.3658 -205.17585,442.14091 C -217.59573,452.75345 -212.06576,463.366 -208.71336,473.97854 C -227.8234,484.53629 -253.84869,491.14246 -231.70721,525.2725 L -233.47597,557.11013 C -306.30158,638.30371 -369.35835,687.7307 -343.13892,741.06089 L -345.36909,778.4355 C -375.32263,803.96231 -394.86398,842.82941 -408.58294,882.56148 z"
       id="path3336"
       sodipodi:nodetypes="cccccccccccsccccccccccccccc" />
    <g
       id="g3364"
       style="fill:none;stroke:#cd8301;stroke-width:10;stroke-linecap:round;stroke-linejoin:round;stroke-miterlimit:4;stroke-dasharray:none;stroke-opacity:1">
      <path
         sodipodi:nodetypes="cccc"
         id="path3338"
         d="M 60.099465,897.60606 C 40.895276,860.21659 22.954905,821.5633 0,787.92454 C 38.835416,643.47732 -27.124617,658.37725 -48.079572,570.06397 C -5.481753,286.34783 -36.469269,344.26416 -54.089519,228.99951"
         style="fill:none;stroke-linecap:round" />
      <path
         id="path3340"
         d="M -350.07938,777.40713 L 0,787.92454 L 152.06215,786.88225"
         sodipodi:nodetypes="ccc"
         style="fill:none;stroke-linecap:round" />
      <path
         id="path3342"
         d="M -344.06944,741.34745 L 6.0099465,754.86983 L 149.88301,751.86486"
         sodipodi:nodetypes="ccc"
         style="fill:none;stroke-linecap:round" />
      <path
         id="path3344"
         d="M -237.39289,553.53662 C -223.87051,553.53662 -49.582059,570.06397 -49.582059,570.06397 L 61.601952,553.53662"
         style="fill:none;stroke-linecap:round" />
      <path
         id="path3346"
         d="M -232.88543,526.49186 L -45.074599,538.51176 L 49.582059,524.98938"
         style="fill:none;stroke-linecap:round" />
      <path
         id="path3348"
         d="M -210.34813,467.89488 C -199.83072,467.89488 -36.059679,473.90483 -36.059679,473.90483 L 33.054706,460.38245"
         style="fill:none;stroke-linecap:round" />
      <path
         id="path3350"
         d="M -207.34315,440.85012 C -198.32823,440.85012 -31.552219,446.86007 -31.552219,446.86007 L 30.049733,433.33769"
         style="fill:none;stroke-linecap:round" />
      <path
         id="path3352"
         d="M -202.83569,397.27801 L -30.049733,406.29293 L 21.034813,397.27801"
         style="fill:none;stroke-linecap:round" />
      <path
         sodipodi:nodetypes="ccc"
         id="path3354"
         d="M -130.71634,219.98459 C -117.19396,224.49205 -33.054706,232.00448 -33.054706,232.00448 L -33.054706,232.00448"
         style="fill:none;stroke-linecap:round" />
      <path
         id="path3356"
         d="M -126.20888,195.9448 L -36.059679,204.95972"
         style="fill:none;stroke-linecap:round" />
      <path
         id="path3358"
         d="M -91.651684,72.740901 L -55.592005,69.735928"
         style="fill:none;stroke-linecap:round" />
      <path
         sodipodi:nodetypes="cc"
         id="path3360"
         d="M -96.159144,33.676249 C -81.819526,33.113947 -68.954552,32.060097 -61.601952,29.168789"
         style="fill:none;stroke-linecap:round" />
      <path
         sodipodi:nodetypes="cc"
         id="path3362"
         d="M -78.058876,32.608075 C -67.225997,89.424406 -51.17991,146.44124 -59.571247,202.51818"
         style="fill:none;stroke-linecap:round" />
    </g>
  </g>
  <g
     inkscape:label="Frames"
     inkscape:groupmode="layer"
     id="layer1"
     style="display:none"
     sodipodi:insensitive="true">
    <path
       sodipodi:type="arc"
       style="opacity:1;fill:#ffffff;fill-opacity:1;fill-rule:evenodd;stroke:#f00808;stroke-width:15;stroke-linecap:round;stroke-linejoin:round;stroke-miterlimit:3.86369991;stroke-dasharray:none;stroke-opacity:1"
       id="path3244"
       sodipodi:cx="276.56619"
       sodipodi:cy="546.30487"
       sodipodi:rx="1198.4535"
       sodipodi:ry="1231.7983"
       d="M 1475.0197,546.30487 A 1198.4535,1231.7983 0 1 1 -921.8873,546.30487 A 1198.4535,1231.7983 0 1 1 1475.0197,546.30487 z"
       transform="translate(-12.7323,-14.728174)" />
    <path
       sodipodi:type="arc"
       style="opacity:1;fill:#efef0a;fill-opacity:1;fill-rule:evenodd;stroke:#0831bd;stroke-width:15;stroke-linecap:round;stroke-linejoin:round;stroke-miterlimit:3.86369991;stroke-dasharray:none;stroke-opacity:1"
       id="path3226"
       sodipodi:cx="248.86484"
       sodipodi:cy="554.63251"
       sodipodi:rx="1156.2305"
       sodipodi:ry="1193.6703"
       d="M 1405.0953,554.63251 A 1156.2305,1193.6703 0 1 1 -907.36563,554.63251 A 1156.2305,1193.6703 0 1 1 1405.0953,554.63251 z"
       transform="translate(17.618749,-26.428125)" />
    <path
       sodipodi:type="arc"
       style="opacity:1;fill:#008ce7;fill-opacity:1;fill-rule:evenodd;stroke:#f00808;stroke-width:15;stroke-linecap:round;stroke-linejoin:round;stroke-miterlimit:3.86369991;stroke-dasharray:none;stroke-opacity:1"
       id="path2454"
       sodipodi:cx="282.85715"
       sodipodi:cy="502.36218"
       sodipodi:rx="774.28577"
       sodipodi:ry="795.71423"
       d="M 1057.1429,502.36218 A 774.28577,795.71423 0 1 1 -491.42862,502.36218 A 774.28577,795.71423 0 1 1 1057.1429,502.36218 z"
       transform="translate(-2.8571429,17.142857)" />
  </g>
  <g
     inkscape:groupmode="layer"
     id="layer3"
     inkscape:label="Border"
     style="display:none"
     sodipodi:insensitive="true">
    <g
       id="g3286">
      <path
         sodipodi:nodetypes="ccccccccc"
         id="path3277"
         d="M -736.83657,661.16632 C -705.71154,659.92363 -705.446,598.2693 -644.64161,611.99568 C -689.87199,562.90651 -627.28727,549.56824 -621.14094,445.32165 C -594.70584,523.80724 -559.72666,589.32431 -603.78659,611.63413 C -557.19293,593.05396 -539.79355,619.23439 -508.69924,639.47339 C -537.77465,697.00179 -565.49235,687.45528 -596.55561,679.24376 C -557.84259,703.44875 -579.59301,779.15964 -590.40928,845.55624 C -628.25029,789.51107 -675.18574,731.76695 -628.37191,691.53642 C -668.84362,714.36987 -687.65474,672.87006 -736.83657,661.16632 z"
         style="opacity:1;fill:#f00608;fill-opacity:1;fill-rule:evenodd;stroke:#000000;stroke-width:8;stroke-linecap:round;stroke-linejoin:round;stroke-miterlimit:4;stroke-dasharray:none;stroke-opacity:1" />
      <g
         transform="translate(-3.5809593,3.5809593)"
         id="g3279">
        <path
           sodipodi:type="arc"
           style="opacity:1;fill:#f00808;fill-opacity:1;fill-rule:evenodd;stroke:#000000;stroke-width:7;stroke-linecap:round;stroke-linejoin:round;stroke-miterlimit:3.86369991;stroke-dasharray:none;stroke-opacity:1"
           id="path3267"
           sodipodi:cx="-614.10632"
           sodipodi:cy="643.21338"
           sodipodi:rx="34.095734"
           sodipodi:ry="32.180244"
           d="M -580.01059,643.21338 A 34.095734,32.180244 0 1 1 -648.20206,643.21338 A 34.095734,32.180244 0 1 1 -580.01059,643.21338 z"
           transform="translate(-0.7661963,-0.7661963)" />
        <path
           style="fill:none;fill-rule:evenodd;stroke:#000000;stroke-width:10;stroke-linecap:butt;stroke-linejoin:miter;stroke-miterlimit:4;stroke-dasharray:none;stroke-opacity:1"
           d="M -615.64541,550.0832 L -615.64541,609.76585"
           id="path3269"
           sodipodi:nodetypes="cc" />
        <path
           style="fill:none;fill-rule:evenodd;stroke:#000000;stroke-width:10;stroke-linecap:butt;stroke-linejoin:miter;stroke-miterlimit:4;stroke-dasharray:none;stroke-opacity:1"
           d="M -579.11255,642.9553 L -540.69927,642.63684"
           id="path3271"
           sodipodi:nodetypes="cc" />
        <path
           style="fill:none;fill-rule:evenodd;stroke:#000000;stroke-width:10;stroke-linecap:butt;stroke-linejoin:miter;stroke-miterlimit:4;stroke-dasharray:none;stroke-opacity:1"
           d="M -614.3601,673.18123 L -614.4032,729.87975"
           id="path3273"
           sodipodi:nodetypes="cc" />
        <path
           style="fill:none;fill-rule:evenodd;stroke:#000000;stroke-width:10;stroke-linecap:butt;stroke-linejoin:miter;stroke-miterlimit:4;stroke-dasharray:none;stroke-opacity:1"
           d="M -694.72728,642.5078 L -651.58804,643.31709"
           id="path3275"
           sodipodi:nodetypes="cc" />
      </g>
    </g>
    <g
       id="g3295"
       transform="matrix(-1,0,0,1,559.25049,-5.7382812e-5)">
      <path
         style="opacity:1;fill:#f00608;fill-opacity:1;fill-rule:evenodd;stroke:#000000;stroke-width:8;stroke-linecap:round;stroke-linejoin:round;stroke-miterlimit:4;stroke-dasharray:none;stroke-opacity:1"
         d="M -736.83657,661.16632 C -705.71154,659.92363 -705.446,598.2693 -644.64161,611.99568 C -689.87199,562.90651 -627.28727,549.56824 -621.14094,445.32165 C -594.70584,523.80724 -559.72666,589.32431 -603.78659,611.63413 C -557.19293,593.05396 -539.79355,619.23439 -508.69924,639.47339 C -537.77465,697.00179 -565.49235,687.45528 -596.55561,679.24376 C -557.84259,703.44875 -579.59301,779.15964 -590.40928,845.55624 C -628.25029,789.51107 -675.18574,731.76695 -628.37191,691.53642 C -668.84362,714.36987 -687.65474,672.87006 -736.83657,661.16632 z"
         id="path3297"
         sodipodi:nodetypes="ccccccccc" />
      <g
         id="g3299"
         transform="translate(-3.5809593,3.5809593)">
        <path
           transform="translate(-0.7661963,-0.7661963)"
           d="M -580.01059,643.21338 A 34.095734,32.180244 0 1 1 -648.20206,643.21338 A 34.095734,32.180244 0 1 1 -580.01059,643.21338 z"
           sodipodi:ry="32.180244"
           sodipodi:rx="34.095734"
           sodipodi:cy="643.21338"
           sodipodi:cx="-614.10632"
           id="path3301"
           style="opacity:1;fill:#f00808;fill-opacity:1;fill-rule:evenodd;stroke:#000000;stroke-width:7;stroke-linecap:round;stroke-linejoin:round;stroke-miterlimit:3.86369991;stroke-dasharray:none;stroke-opacity:1"
           sodipodi:type="arc" />
        <path
           sodipodi:nodetypes="cc"
           id="path3303"
           d="M -615.64541,550.0832 L -615.64541,609.76585"
           style="fill:none;fill-rule:evenodd;stroke:#000000;stroke-width:10;stroke-linecap:butt;stroke-linejoin:miter;stroke-miterlimit:4;stroke-dasharray:none;stroke-opacity:1" />
        <path
           sodipodi:nodetypes="cc"
           id="path3305"
           d="M -579.11255,642.9553 L -540.69927,642.63684"
           style="fill:none;fill-rule:evenodd;stroke:#000000;stroke-width:10;stroke-linecap:butt;stroke-linejoin:miter;stroke-miterlimit:4;stroke-dasharray:none;stroke-opacity:1" />
        <path
           sodipodi:nodetypes="cc"
           id="path3307"
           d="M -614.3601,673.18123 L -614.4032,729.87975"
           style="fill:none;fill-rule:evenodd;stroke:#000000;stroke-width:10;stroke-linecap:butt;stroke-linejoin:miter;stroke-miterlimit:4;stroke-dasharray:none;stroke-opacity:1" />
        <path
           sodipodi:nodetypes="cc"
           id="path3309"
           d="M -694.72728,642.5078 L -651.58804,643.31709"
           style="fill:none;fill-rule:evenodd;stroke:#000000;stroke-width:10;stroke-linecap:butt;stroke-linejoin:miter;stroke-miterlimit:4;stroke-dasharray:none;stroke-opacity:1" />
      </g>
    </g>
    <text
       xml:space="preserve"
       style="font-size:210px;font-style:normal;font-variant:normal;font-weight:normal;font-stretch:normal;text-align:justify;line-height:100%;writing-mode:lr-tb;text-anchor:start;fill:#0831bd;fill-opacity:1;stroke:none;stroke-width:1px;stroke-linecap:butt;stroke-linejoin:miter;stroke-opacity:1;font-family:Arial Unicode MS;-inkscape-font-specification:Arial Unicode MS"
       id="text3311"
       sodipodi:linespacing="100%"><textPath
         xlink:href="#path3319"
         id="textPath3321"><tspan
   id="tspan3315"
   style="font-size:210px;font-style:normal;font-variant:normal;font-weight:normal;font-stretch:normal;text-align:justify;line-height:100%;writing-mode:lr-tb;text-anchor:start;fill:#0831bd;fill-opacity:1;font-family:Arial Unicode MS;-inkscape-font-specification:Arial Unicode MS">เทศบาลตำบลบ้านไผ่</tspan></textPath></text>
    <path
       style="fill:none;fill-rule:evenodd;stroke:none;stroke-width:1px;stroke-linecap:butt;stroke-linejoin:miter;stroke-opacity:1"
       d="M -458.0875,43.688745 C -98.371353,-491.24203 578.48229,-531.67921 991.05469,34.87937"
       id="path3319"
       sodipodi:nodetypes="cc" />
    <path
       style="fill:none;fill-rule:evenodd;stroke:none;stroke-width:1px;stroke-linecap:butt;stroke-linejoin:miter;stroke-opacity:1"
       d="M -330.35156,1356.2856 C 30.883006,1654.0725 507.86842,1637.7892 845.7,1387.1184"
       id="path3324"
       sodipodi:nodetypes="cc" />
    <text
       xml:space="preserve"
       style="font-size:200px;font-style:normal;font-variant:normal;font-weight:normal;font-stretch:normal;text-align:justify;line-height:125%;writing-mode:lr-tb;text-anchor:start;fill:#0831bd;fill-opacity:1;stroke:none;stroke-width:1px;stroke-linecap:butt;stroke-linejoin:miter;stroke-opacity:1;font-family:Arial Unicode MS;-inkscape-font-specification:Arial Unicode MS"
       id="text3326"
       sodipodi:linespacing="125%"><textPath
         xlink:href="#path3324"
         id="textPath3332"><tspan
   id="tspan3330"
   style="font-size:200px;font-style:normal;font-variant:normal;font-weight:normal;font-stretch:normal;text-align:justify;line-height:125%;writing-mode:lr-tb;text-anchor:start;fill:#0831bd;fill-opacity:1;stroke:none;stroke-opacity:1;font-family:Arial Unicode MS;-inkscape-font-specification:Arial Unicode MS">จังหวัดขอนแก่น</tspan></textPath></text>
  </g>
</svg>
