<?xml version="1.0" encoding="UTF-8" standalone="no"?>
<!-- Created with Inkscape (http://www.inkscape.org/) -->
<svg
   xmlns:dc="http://purl.org/dc/elements/1.1/"
   xmlns:cc="http://creativecommons.org/ns#"
   xmlns:rdf="http://www.w3.org/1999/02/22-rdf-syntax-ns#"
   xmlns:svg="http://www.w3.org/2000/svg"
   xmlns="http://www.w3.org/2000/svg"
   xmlns:xlink="http://www.w3.org/1999/xlink"
   xmlns:sodipodi="http://sodipodi.sourceforge.net/DTD/sodipodi-0.dtd"
   xmlns:inkscape="http://www.inkscape.org/namespaces/inkscape"
   width="191.9095"
   height="192.79698"
   id="svg2"
   sodipodi:version="0.32"
   inkscape:version="0.46"
   sodipodi:docname="Chiang Mai - Doi Saket - San Pu Loei (new).svg"
   inkscape:output_extension="org.inkscape.output.svg.inkscape"
   version="1.0"
   inkscape:export-filename="C:\Documents and Settings\andy\My Documents\Thailand\DOPA\Tambon\misc\Emblems\Chiang Mai - Doi Saket - San Pu Loei (new).png"
   inkscape:export-xdpi="90"
   inkscape:export-ydpi="90">
  <defs
     id="defs4">
    <inkscape:perspective
       sodipodi:type="inkscape:persp3d"
       inkscape:vp_x="0 : 526.18109 : 1"
       inkscape:vp_y="0 : 1000 : 0"
       inkscape:vp_z="744.09448 : 526.18109 : 1"
       inkscape:persp3d-origin="372.04724 : 350.78739 : 1"
       id="perspective10" />
    <inkscape:perspective
       id="perspective2464"
       inkscape:persp3d-origin="372.04724 : 350.78739 : 1"
       inkscape:vp_z="744.09448 : 526.18109 : 1"
       inkscape:vp_y="0 : 1000 : 0"
       inkscape:vp_x="0 : 526.18109 : 1"
       sodipodi:type="inkscape:persp3d" />
  </defs>
  <sodipodi:namedview
     id="base"
     pagecolor="#ffffff"
     bordercolor="#666666"
     borderopacity="1.0"
     inkscape:pageopacity="0.0"
     inkscape:pageshadow="2"
     inkscape:zoom="3.3195539"
     inkscape:cx="95.954753"
     inkscape:cy="96.398494"
     inkscape:document-units="px"
     inkscape:current-layer="layer1"
     showgrid="false"
     inkscape:window-width="1440"
     inkscape:window-height="853"
     inkscape:window-x="0"
     inkscape:window-y="20" />
  <metadata
     id="metadata7">
    <rdf:RDF>
      <cc:Work
         rdf:about="">
        <dc:format>image/svg+xml</dc:format>
        <dc:type
           rdf:resource="http://purl.org/dc/dcmitype/StillImage" />
      </cc:Work>
    </rdf:RDF>
  </metadata>
  <g
     inkscape:label="Ebene 1"
     inkscape:groupmode="layer"
     id="layer1"
     transform="translate(-253.4929,-435.67503)">
    <path
       sodipodi:type="arc"
       style="opacity:1;fill:#fdfd7b;fill-opacity:1;fill-rule:nonzero;stroke:#000000;stroke-width:1.10000002;stroke-linecap:square;stroke-linejoin:round;stroke-miterlimit:4;stroke-dasharray:none;stroke-opacity:1"
       id="path3305"
       sodipodi:cx="349.55856"
       sodipodi:cy="533.73755"
       sodipodi:rx="73.994148"
       sodipodi:ry="72.219177"
       d="M 423.55271,533.73755 A 73.994148,72.219177 0 1 1 275.56441,533.73755 A 73.994148,72.219177 0 1 1 423.55271,533.73755 z"
       transform="matrix(0.9374172,0,0,0.9589205,22.098226,20.705356)" />
    <path
       sodipodi:type="arc"
       style="opacity:1;fill:#fdfd7b;fill-opacity:1;fill-rule:nonzero;stroke:#000000;stroke-width:1.10000002;stroke-linecap:square;stroke-linejoin:round;stroke-miterlimit:4;stroke-dasharray:none;stroke-opacity:1"
       id="path3303"
       sodipodi:cx="349.55856"
       sodipodi:cy="533.73755"
       sodipodi:rx="73.994148"
       sodipodi:ry="72.219177"
       d="M 423.55271,533.73755 A 73.994148,72.219177 0 1 1 275.56441,533.73755 A 73.994148,72.219177 0 1 1 423.55271,533.73755 z"
       transform="matrix(1.2870821,0,0,1.3248598,-100.46292,-175.0539)" />
    <path
       sodipodi:type="arc"
       style="opacity:1;fill:#fdfd7b;fill-opacity:1;fill-rule:nonzero;stroke:#000000;stroke-width:1.10000002;stroke-linecap:square;stroke-linejoin:round;stroke-miterlimit:4;stroke-dasharray:none;stroke-opacity:1"
       id="path3301"
       sodipodi:cx="349.55856"
       sodipodi:cy="533.73755"
       sodipodi:rx="73.994148"
       sodipodi:ry="72.219177"
       d="M 423.55271,533.73755 A 73.994148,72.219177 0 1 1 275.56441,533.73755 A 73.994148,72.219177 0 1 1 423.55271,533.73755 z"
       transform="matrix(0.9880167,0,0,1.0092275,4.1888799,-5.812556)" />
    <path
       style="fill:#340e71;fill-opacity:1;fill-rule:evenodd;stroke:#000000;stroke-width:1px;stroke-linecap:butt;stroke-linejoin:miter;stroke-opacity:1"
       d="M 349.44763,521.8674 L 348.56015,598.41307 C 339.2826,592.78243 327.77327,585.62738 321.26995,583.32581 L 336.13534,566.01983 C 334.00115,565.18517 331.59332,564.89777 327.70422,567.57293 L 331.91978,559.80743 L 342.56961,566.2417 L 333.91662,575.78218 C 331.58111,579.83777 336.11229,584.01202 343.23523,582.88206 L 349.44763,521.8674 z"
       id="path2470"
       sodipodi:nodetypes="cccccccccc" />
    <path
       style="fill:#a14874;fill-opacity:1;fill-rule:evenodd;stroke:#000000;stroke-width:1px;stroke-linecap:butt;stroke-linejoin:miter;stroke-opacity:1"
       d="M 352.11009,574.0072 L 350.33512,598.41307 L 366.30987,591.75693 C 370.73918,583.85293 363.6372,574.14799 359.65372,582.66019 C 369.24285,580.81842 363.59087,589.98621 356.76939,589.98195 L 357.21313,576.89153 L 364.09115,576.66966 C 369.02109,578.96549 369.30876,584.25566 368.97232,590.64757 L 375.18473,587.76324 L 363.42554,561.13866 L 352.7757,567.35106 L 360.98495,566.90732 L 363.42554,573.56346 L 352.11009,574.0072 z"
       id="path2472"
       sodipodi:nodetypes="cccccccccccccc" />
    <path
       style="fill:#eb3c01;fill-opacity:1;fill-rule:evenodd;stroke:#000000;stroke-width:1px;stroke-linecap:butt;stroke-linejoin:miter;stroke-opacity:1"
       d="M 349.22576,521.8674 L 362.75992,559.58556 L 352.99757,563.35737 L 351.88822,546.93888 C 348.19036,547.51887 344.4925,545.89288 340.79464,551.37631 C 342.00614,553.02625 343.42128,554.57437 348.1164,554.48251 C 348.94724,557.21893 349.16026,559.95534 345.89769,562.69176 C 343.18799,559.57955 327.76421,561.31869 339.90716,543.83268 C 343.9426,542.69767 347.02842,542.98709 349.89137,543.61081 C 348.99656,539.53789 346.46897,537.5876 339.68528,541.17022 L 343.4571,532.07349 L 349.44763,532.07349 L 349.22576,521.8674 z"
       id="path2474"
       sodipodi:nodetypes="ccccccccccccc" />
    <g
       id="g2506"
       style="fill:#340e71;fill-opacity:1">
      <path
         id="path2476"
         d="M 346.5633,521.20178 L 304.85146,566.68544 L 294.86724,566.46357 L 299.74841,558.03246 L 346.5633,521.20178 z"
         style="fill:#340e71;fill-opacity:1;fill-rule:evenodd;stroke:#000000;stroke-width:1px;stroke-linecap:butt;stroke-linejoin:miter;stroke-opacity:1"
         sodipodi:nodetypes="ccccc" />
      <path
         id="path2478"
         d="M 344.78833,519.42681 L 305.73894,545.60765 L 296.64221,545.60765 L 301.74526,538.95151 L 344.78833,519.42681 z"
         style="fill:#340e71;fill-opacity:1;fill-rule:evenodd;stroke:#000000;stroke-width:1px;stroke-linecap:butt;stroke-linejoin:miter;stroke-opacity:1"
         sodipodi:nodetypes="ccccc" />
      <path
         id="path2480"
         d="M 343.4571,518.31746 L 307.29204,531.186 L 302.85461,528.96729 L 306.8483,524.30799 L 343.4571,518.31746 z"
         style="fill:#340e71;fill-opacity:1;fill-rule:evenodd;stroke:#000000;stroke-width:1px;stroke-linecap:butt;stroke-linejoin:miter;stroke-opacity:1"
         sodipodi:nodetypes="ccccc" />
      <path
         id="path2482"
         d="M 342.79148,516.09874 L 312.17322,516.98623 L 309.51076,513.88002 L 313.28257,511.66131 L 342.79148,516.09874 z"
         style="fill:#340e71;fill-opacity:1;fill-rule:evenodd;stroke:#000000;stroke-width:1px;stroke-linecap:butt;stroke-linejoin:miter;stroke-opacity:1"
         sodipodi:nodetypes="ccccc" />
      <path
         id="path2484"
         d="M 342.12587,512.99254 L 316.38878,505.22704 L 315.27942,502.12083 L 319.49498,501.23335 L 342.12587,512.99254 z"
         style="fill:#340e71;fill-opacity:1;fill-rule:evenodd;stroke:#000000;stroke-width:1px;stroke-linecap:butt;stroke-linejoin:miter;stroke-opacity:1" />
      <path
         id="path2486"
         d="M 342.56961,509.22072 L 322.60118,494.79907 L 322.82305,491.24913 L 326.81674,491.69287 L 342.56961,509.22072 z"
         style="fill:#340e71;fill-opacity:1;fill-rule:evenodd;stroke:#000000;stroke-width:1px;stroke-linecap:butt;stroke-linejoin:miter;stroke-opacity:1"
         sodipodi:nodetypes="ccccc" />
      <path
         id="path2488"
         d="M 345.23207,505.4489 L 331.25417,484.37111 L 331.25417,480.15555 L 336.13534,481.93053 L 345.23207,505.4489 z"
         style="fill:#340e71;fill-opacity:1;fill-rule:evenodd;stroke:#000000;stroke-width:1px;stroke-linecap:butt;stroke-linejoin:miter;stroke-opacity:1"
         sodipodi:nodetypes="ccccc" />
      <path
         id="path2490"
         d="M 349.22576,504.78329 C 349.22576,503.8958 346.34143,469.94947 346.34143,469.94947 L 349.2743,465.51204 L 352.74381,469.97859 L 349.22576,504.78329 z"
         style="fill:#340e71;fill-opacity:1;fill-rule:evenodd;stroke:#000000;stroke-width:1px;stroke-linecap:butt;stroke-linejoin:miter;stroke-opacity:1"
         sodipodi:nodetypes="ccccc" />
      <path
         id="path2492"
         d="M 352.55383,505.22703 L 363.20366,481.26491 L 367.41922,479.71181 L 368.52858,484.81486 L 352.55383,505.22703 z"
         style="fill:#340e71;fill-opacity:1;fill-rule:evenodd;stroke:#000000;stroke-width:1px;stroke-linecap:butt;stroke-linejoin:miter;stroke-opacity:1"
         sodipodi:nodetypes="ccccc" />
      <path
         id="path2494"
         d="M 355.21629,508.77698 L 375.85034,495.24282 L 376.51595,491.69287 L 371.85665,491.24913 L 355.21629,508.77698 z"
         style="fill:#340e71;fill-opacity:1;fill-rule:evenodd;stroke:#000000;stroke-width:1px;stroke-linecap:butt;stroke-linejoin:miter;stroke-opacity:1"
         sodipodi:nodetypes="ccccc" />
      <path
         id="path2496"
         d="M 356.10378,512.54879 L 381.84087,505.22704 L 383.61584,501.89896 L 378.95654,499.90212 L 356.10378,512.54879 z"
         style="fill:#340e71;fill-opacity:1;fill-rule:evenodd;stroke:#000000;stroke-width:1px;stroke-linecap:butt;stroke-linejoin:miter;stroke-opacity:1"
         sodipodi:nodetypes="ccccc" />
      <path
         id="path2498"
         d="M 355.66003,515.87687 L 385.61269,516.98623 L 389.3845,513.65815 L 384.94707,511.66131 L 355.66003,515.87687 z"
         style="fill:#340e71;fill-opacity:1;fill-rule:evenodd;stroke:#000000;stroke-width:1px;stroke-linecap:butt;stroke-linejoin:miter;stroke-opacity:1"
         sodipodi:nodetypes="ccccc" />
      <path
         id="path2500"
         d="M 354.99442,517.42997 L 391.82509,531.62975 L 395.81878,529.41103 L 392.71257,524.75173 L 354.99442,517.42997 z"
         style="fill:#340e71;fill-opacity:1;fill-rule:evenodd;stroke:#000000;stroke-width:1px;stroke-linecap:butt;stroke-linejoin:miter;stroke-opacity:1"
         sodipodi:nodetypes="ccccc" />
      <path
         id="path2502"
         d="M 353.21945,519.20494 L 394.48755,546.71701 L 401.80931,546.49514 L 396.92813,539.17338 L 353.21945,519.20494 z"
         style="fill:#340e71;fill-opacity:1;fill-rule:evenodd;stroke:#000000;stroke-width:1px;stroke-linecap:butt;stroke-linejoin:miter;stroke-opacity:1"
         sodipodi:nodetypes="ccccc" />
      <path
         id="path2504"
         d="M 351.66634,520.75804 L 394.93129,566.01983 L 402.91866,566.01983 L 398.25936,557.36684 L 351.66634,520.75804 z"
         style="fill:#340e71;fill-opacity:1;fill-rule:evenodd;stroke:#000000;stroke-width:1px;stroke-linecap:butt;stroke-linejoin:miter;stroke-opacity:1"
         sodipodi:nodetypes="ccccc" />
    </g>
    <path
       sodipodi:type="arc"
       style="opacity:0;fill:#340e71;fill-opacity:1;fill-rule:nonzero;stroke:#000000;stroke-width:1.10000002;stroke-linecap:square;stroke-linejoin:round;stroke-miterlimit:4;stroke-dasharray:none;stroke-opacity:1"
       id="path3293"
       sodipodi:cx="349.00388"
       sodipodi:cy="513.54724"
       sodipodi:rx="5.5467877"
       sodipodi:ry="6.9889526"
       d="M 354.55066,513.54724 A 5.5467877,6.9889526 0 1 1 343.45709,513.54724 A 5.5467877,6.9889526 0 1 1 354.55066,513.54724 z"
       transform="matrix(1.218957,0,0,1.2055214,-76.416827,-106.21056)" />
    <g
       id="g3379">
      <path
         sodipodi:nodetypes="cccc"
         id="path3295"
         d="M 349.22576,519.87056 L 342.79149,510.77383 C 345.073,505.01347 353.96371,506.12287 355.21629,510.55196 L 349.22576,519.87056 z"
         style="opacity:1;fill:#f4f804;fill-opacity:1;fill-rule:evenodd;stroke:#000000;stroke-width:1px;stroke-linecap:butt;stroke-linejoin:miter;stroke-opacity:1" />
      <g
         id="g3373">
        <path
           style="fill:#ed7f05;fill-opacity:1;fill-rule:evenodd;stroke:#000000;stroke-width:0.5;stroke-linecap:butt;stroke-linejoin:bevel;stroke-miterlimit:4;stroke-dasharray:none;stroke-opacity:1"
           d="M 349.08154,519.54607 C 348.79866,518.83885 345.54547,510.63515 345.54547,510.63515 L 349.08154,510.56443 L 349.08154,519.54607 z"
           id="path3365" />
        <path
           sodipodi:nodetypes="cccc"
           style="opacity:1;fill:#ed7f05;fill-opacity:1;fill-rule:evenodd;stroke:#000000;stroke-width:0.5;stroke-linecap:butt;stroke-linejoin:bevel;stroke-miterlimit:4;stroke-dasharray:none;stroke-opacity:1"
           d="M 351.98113,510.49371 L 354.94252,510.49371 L 349.5326,518.93085 L 351.98113,510.49371 z"
           id="path3367" />
        <path
           style="opacity:1;fill:#ed7f05;fill-opacity:1;fill-rule:evenodd;stroke:#000000;stroke-width:0.5;stroke-linecap:butt;stroke-linejoin:bevel;stroke-miterlimit:4;stroke-dasharray:none;stroke-opacity:1"
           d="M 349.05259,510.56333 L 351.98002,510.53548 L 351.96766,507.65426 C 351.03079,507.30188 350.34321,507.03987 349.01082,507.09539 L 349.05259,510.56333 z"
           id="path3369"
           sodipodi:nodetypes="ccccc" />
        <path
           style="opacity:1;fill:#ed7f05;fill-opacity:1;fill-rule:evenodd;stroke:#000000;stroke-width:0.5;stroke-linecap:butt;stroke-linejoin:bevel;stroke-miterlimit:4;stroke-dasharray:none;stroke-opacity:1"
           d="M 343.12489,510.72201 L 345.61619,510.70588 L 344.84328,508.48776 C 344.17865,508.96554 343.62004,509.44815 343.12489,510.72201 z"
           id="path3371"
           sodipodi:nodetypes="cccc" />
      </g>
    </g>
    <path
       style="fill:none;fill-rule:evenodd;stroke:none;stroke-width:1px;stroke-linecap:butt;stroke-linejoin:miter;stroke-opacity:1"
       d="M 281.9625,492.29968 C 317.91879,442.92947 378.65883,440.34463 418.4375,492.29968"
       id="path2421"
       sodipodi:nodetypes="cc" />
    <text
       xml:space="preserve"
       style="font-size:18px;font-style:normal;font-variant:normal;font-weight:normal;font-stretch:normal;text-align:start;line-height:100%;writing-mode:lr-tb;text-anchor:start;fill:#000000;fill-opacity:1;stroke:none;stroke-width:1px;stroke-linecap:butt;stroke-linejoin:miter;stroke-opacity:1;font-family:Arial Unicode MS;-inkscape-font-specification:Arial Unicode MS"
       id="text2423"
       sodipodi:linespacing="100%"><textPath
         xlink:href="#path2421"
         id="textPath2429"><tspan
   id="tspan2427">เทศบาลตำบลสันปูเลย</tspan></textPath></text>
    <path
       style="fill:none;fill-rule:evenodd;stroke:none;stroke-width:1px;stroke-linecap:butt;stroke-linejoin:miter;stroke-opacity:1"
       d="M 274.88124,582.42468 C 285.64977,598.65281 302.75132,616.10256 341.1875,623.94656"
       id="path3202"
       sodipodi:nodetypes="cc" />
    <text
       xml:space="preserve"
       style="font-size:16px;font-style:normal;font-variant:normal;font-weight:normal;font-stretch:normal;text-align:start;line-height:125%;writing-mode:lr-tb;text-anchor:start;fill:#000000;fill-opacity:1;stroke:none;stroke-width:1px;stroke-linecap:butt;stroke-linejoin:miter;stroke-opacity:1;font-family:Arial Unicode MS;-inkscape-font-specification:Arial Unicode MS"
       id="text3204"
       sodipodi:linespacing="125%"><textPath
         xlink:href="#path3202"
         id="textPath3210"><tspan
   id="tspan3208"
   style="font-size:16px;font-style:normal;font-variant:normal;font-weight:normal;font-stretch:normal;text-align:start;line-height:125%;writing-mode:lr-tb;text-anchor:start;font-family:Arial Unicode MS;-inkscape-font-specification:Arial Unicode MS">อ.ดอยสะเก็ด</tspan></textPath></text>
    <path
       style="fill:none;fill-rule:evenodd;stroke:none;stroke-width:1px;stroke-linecap:butt;stroke-linejoin:miter;stroke-opacity:1"
       d="M 364.3625,624.26844 C 393.97115,615.25521 407.60937,605.48105 425.19688,583.71218"
       id="path3213"
       sodipodi:nodetypes="cc" />
    <text
       xml:space="preserve"
       style="font-size:16px;font-style:normal;font-variant:normal;font-weight:normal;font-stretch:normal;text-align:start;line-height:125%;writing-mode:lr-tb;text-anchor:start;fill:#000000;fill-opacity:1;stroke:none;stroke-width:1px;stroke-linecap:butt;stroke-linejoin:miter;stroke-opacity:1;font-family:Arial Unicode MS;-inkscape-font-specification:Arial Unicode MS"
       id="text3215"
       sodipodi:linespacing="125%"><textPath
         xlink:href="#path3213"
         id="textPath3221"><tspan
   id="tspan3219">จ.เชียงใหม่</tspan></textPath></text>
  </g>
</svg>
