<?xml version="1.0" encoding="UTF-8" standalone="no"?>
<!-- Created with Inkscape (http://www.inkscape.org/) -->
<svg
   xmlns:dc="http://purl.org/dc/elements/1.1/"
   xmlns:cc="http://creativecommons.org/ns#"
   xmlns:rdf="http://www.w3.org/1999/02/22-rdf-syntax-ns#"
   xmlns:svg="http://www.w3.org/2000/svg"
   xmlns="http://www.w3.org/2000/svg"
   xmlns:xlink="http://www.w3.org/1999/xlink"
   xmlns:sodipodi="http://sodipodi.sourceforge.net/DTD/sodipodi-0.dtd"
   xmlns:inkscape="http://www.inkscape.org/namespaces/inkscape"
   width="210mm"
   height="297mm"
   id="svg2"
   sodipodi:version="0.32"
   inkscape:version="0.46"
   sodipodi:docname="Kawan.svg"
   inkscape:output_extension="org.inkscape.output.svg.inkscape">
  <defs
     id="defs4">
    <inkscape:perspective
       sodipodi:type="inkscape:persp3d"
       inkscape:vp_x="0 : 526.18109 : 1"
       inkscape:vp_y="0 : 1000 : 0"
       inkscape:vp_z="744.09448 : 526.18109 : 1"
       inkscape:persp3d-origin="372.04724 : 350.78739 : 1"
       id="perspective10" />
    <inkscape:perspective
       id="perspective2390"
       inkscape:persp3d-origin="372.04724 : 350.78739 : 1"
       inkscape:vp_z="744.09448 : 526.18109 : 1"
       inkscape:vp_y="0 : 1000 : 0"
       inkscape:vp_x="0 : 526.18109 : 1"
       sodipodi:type="inkscape:persp3d" />
  </defs>
  <sodipodi:namedview
     id="base"
     pagecolor="#ffffff"
     bordercolor="#666666"
     borderopacity="1.0"
     inkscape:pageopacity="0.0"
     inkscape:pageshadow="2"
     inkscape:zoom="1.2331407"
     inkscape:cx="282.85714"
     inkscape:cy="671.42857"
     inkscape:document-units="px"
     inkscape:current-layer="layer2"
     showgrid="false"
     inkscape:window-width="1440"
     inkscape:window-height="853"
     inkscape:window-x="1"
     inkscape:window-y="1" />
  <metadata
     id="metadata7">
    <rdf:RDF>
      <cc:Work
         rdf:about="">
        <dc:format>image/svg+xml</dc:format>
        <dc:type
           rdf:resource="http://purl.org/dc/dcmitype/StillImage" />
      </cc:Work>
    </rdf:RDF>
  </metadata>
  <g
     inkscape:groupmode="layer"
     id="layer2"
     inkscape:label="Frame"
     style="display:inline">
    <path
       sodipodi:type="arc"
       style="opacity:1;fill:#e69e0c;fill-opacity:1;fill-rule:evenodd;stroke:#000000;stroke-width:2;stroke-linecap:butt;stroke-linejoin:round;stroke-miterlimit:4;stroke-dasharray:none;stroke-opacity:1"
       id="path2396"
       sodipodi:cx="275.2406"
       sodipodi:cy="377.88043"
       sodipodi:rx="237.02402"
       sodipodi:ry="240.27649"
       d="M 512.26462,377.88043 A 237.02402,240.27649 0 1 1 38.216583,377.88043 A 237.02402,240.27649 0 1 1 512.26462,377.88043 z"
       transform="translate(1.74474e-2,-4.8852534)" />
    <path
       sodipodi:type="arc"
       style="opacity:1;fill:#00af34;fill-opacity:1;fill-rule:evenodd;stroke:#000000;stroke-width:2;stroke-linecap:butt;stroke-linejoin:round;stroke-miterlimit:4;stroke-dasharray:none;stroke-opacity:1;display:inline"
       id="path3171"
       sodipodi:cx="280.52585"
       sodipodi:cy="376.66077"
       sodipodi:rx="167.5024"
       sodipodi:ry="171.56799"
       d="M 448.02824,376.66077 A 167.5024,171.56799 0 1 1 113.02345,376.66077 A 167.5024,171.56799 0 1 1 448.02824,376.66077 z"
       transform="translate(-1.6262369,0)" />
  </g>
  <g
     inkscape:groupmode="layer"
     id="layer3"
     inkscape:label="Emblem"
     style="display:inline">
    <path
       style="opacity:1;fill:#ffffff;fill-opacity:1;fill-rule:evenodd;stroke:none;stroke-width:1px;stroke-linecap:butt;stroke-linejoin:miter;stroke-opacity:1"
       d="M 274.23615,514.85934 C 327.96953,546.40875 400.20579,493.19367 417.55825,422.78792 C 383.25701,451.11527 377.76344,446.96851 368.82514,446.70491 C 389.19979,435.64077 406.86645,422.31997 418.63721,404.08592 C 361.91603,391.39755 324.88826,409.08378 296.35486,439.87149 C 309.06157,424.10719 295.55893,401.48677 276.75372,391.49803 C 265.93071,400.39605 254.767,408.95336 251.39812,425.3055 C 238.33207,390.83663 190.29013,371.43137 187.55954,324.06291 C 158.19177,395.91514 185.32495,415.97483 199.24829,448.14353 C 176.74455,440.55267 155.20605,430.68032 137.92729,410.73952 C 159.14003,495.42313 224.05062,536.67212 274.23615,514.85934 z"
       id="FlowerFrame"
       sodipodi:nodetypes="ccccccccccc" />
    <g
       id="FlowerLeaves"
       style="opacity:1;fill:#25cbff;fill-opacity:1;stroke:#ffffff;stroke-width:2;stroke-miterlimit:4;stroke-dasharray:none;stroke-opacity:1">
      <path
         sodipodi:nodetypes="cccc"
         id="path3178"
         d="M 295.61302,443.42541 C 312.07226,426.54157 325.91229,445.53364 340.15031,459.31299 C 316.28436,485.63431 307.17838,479.93133 295.61302,478.58643 C 309.25575,467.89573 318.29069,456.85727 295.61302,443.42541 z" />
      <path
         sodipodi:nodetypes="cccc"
         id="path3184"
         d="M 307.33336,502.80847 C 314.23258,508.39685 318.79543,514.41002 332.85765,518.69604 C 351.64936,511.56357 361.21345,502.18518 373.50976,494.40317 C 349.64894,502.06287 328.43661,504.11085 307.33336,502.80847 z" />
      <path
         sodipodi:nodetypes="cccc"
         id="path3186"
         d="M 326.79248,500.4644 C 339.72826,499.13832 360.29193,499.84977 373.22771,494.73446 C 390.89783,479.30314 398.9115,462.26242 408.64918,445.50903 C 385.6066,468.50347 355.22828,492.30131 326.79248,500.4644 z" />
      <path
         sodipodi:nodetypes="cccc"
         id="path3188"
         d="M 417.50455,422.58925 C 408.06761,462.82296 380.46383,471.67757 356.55878,486.9209 C 361.24441,474.68561 364.2032,462.52912 358.61845,450.97852 C 384.11301,452.09851 399.83158,435.15704 417.50455,422.58925 z" />
      <path
         sodipodi:nodetypes="cccc"
         id="path3182"
         d="M 297.69663,482.49321 C 298.68665,488.74406 300.82758,494.99491 299.25934,501.24576 C 357.35488,501.6983 356.91383,474.83377 365.1537,452.02033 C 343.31799,455.07004 320.99217,487.42812 297.69663,482.49321 z" />
      <path
         sodipodi:nodetypes="cccc"
         id="path3180"
         d="M 275.27621,518.80811 C 283.4349,512.37251 296.6558,505.25033 299.25934,498.12033 C 305.69112,506.81018 316.36928,513.90764 333.89946,518.43559 C 317.20633,522.31241 300.23785,528.10036 275.27621,518.80811 z" />
      <path
         sodipodi:nodetypes="cccc"
         id="path3190"
         d="M 418.29644,404.00894 C 410.30027,404.48711 353.96103,380.88191 305.57735,435.3406 C 320.54864,437.87898 333.75622,443.52482 341.77728,458.30884 C 369.61351,446.68065 396.39277,432.11645 418.29644,404.00894 z" />
      <path
         sodipodi:nodetypes="ccccc"
         id="path3192"
         d="M 274.32812,519.23438 C 314.91627,493.06119 298.06466,468.85342 274.40625,491.45312 C 267.74255,485.06642 261.61694,482.32795 257.15625,482.375 C 245.76942,482.49511 245.22693,500.42805 274.32812,519.23438 z" />
      <path
         sodipodi:nodetypes="ccc"
         id="path3194"
         d="M 276.57092,391.54297 C 316.3373,421.78169 300.45941,449.50132 276.30668,426.71322 C 244.38944,450.35649 241.52907,412.02515 276.57092,391.54297 z" />
      <path
         sodipodi:nodetypes="cccc"
         id="path3260"
         d="M 210.85642,454.39081 C 221.9773,472.43234 237.34236,481.07406 254.98916,475.91233 C 239.07923,462.78037 231.06718,454.46406 254.71674,439.95232 C 246.71719,435.17069 241.32668,428.97743 210.85642,454.39081 z" />
      <path
         sodipodi:nodetypes="cccc"
         id="path3262"
         d="M 209.22188,452.21141 C 217.75784,443.14359 226.2938,437.97743 234.82976,433.95898 C 197.31282,424.83482 196.58781,413.60826 181.97944,403.17504 C 185.90087,422.96009 190.35956,442.38696 209.22188,452.21141 z" />
      <path
         sodipodi:nodetypes="ccc"
         id="path3264"
         d="M 207.58733,373.75321 C 219.90028,393.90287 252.2548,408.30627 251.17522,431.23474 C 219.6667,432.66606 204.95221,413.73014 207.58733,373.75321 z" />
      <path
         sodipodi:nodetypes="ccc"
         id="path3266"
         d="M 187.70035,323.89956 C 188.61801,364.94323 191.83956,396.06806 210.85642,418.15837 C 176.21804,418.37283 168.31744,385.87792 187.70035,323.89956 z" />
      <path
         sodipodi:nodetypes="cccc"
         id="path3268"
         d="M 203.22854,400.72322 C 203.11968,385.68048 206.15925,378.73373 211.12885,376.74988 C 198.44323,365.28404 193.69065,351.65464 188.79005,338.06562 C 187.71678,364.83758 191.25176,387.0013 203.22854,400.72322 z" />
      <path
         sodipodi:nodetypes="ccc"
         id="path3272"
         d="M 150.65065,442.94899 C 164.12882,471.38668 177.57931,499.86634 213.03582,494.98203 C 194.84839,478.79741 165.42729,464.11062 150.65065,442.94899 z" />
      <path
         sodipodi:nodetypes="cccc"
         id="path3274"
         d="M 140.29852,414.88928 C 141.17251,446.97933 169.72452,460.04075 192.60399,477.00203 C 188.18121,461.16274 189.94841,453.1641 196.41793,451.12172 C 175.7867,443.85614 158.10651,429.21296 140.29852,414.88928 z" />
      <path
         sodipodi:nodetypes="cccc"
         id="path3276"
         d="M 189.60732,491.71294 C 196.94834,499.85333 203.24521,508.57381 216.84976,513.23446 C 228.59929,510.70948 236.78526,506.40271 242.73007,500.97537 C 212.76236,502.9034 205.02092,495.73887 189.60732,491.71294 z" />
      <path
         sodipodi:nodetypes="cccc"
         id="path3278"
         d="M 223.11552,513.23446 C 229.14341,518.93244 249.1354,522.55066 274.00564,519.55217 C 268.02145,513.74045 254.93622,507.05951 252.53734,501.24779 C 244.61055,507.75065 235.38457,512.52127 223.11552,513.23446 z" />
      <path
         sodipodi:nodetypes="cccc"
         id="path3270"
         d="M 193.42126,447.5802 C 192.38921,470.87897 189.88368,493.03833 247.08885,497.16143 C 250.93418,491.01024 250.17487,486.70091 250.63037,481.90566 C 228.67621,482.76448 214.58823,457.27568 193.42126,447.5802 z" />
    </g>
    <path
       style="fill:#ffffff;fill-opacity:1;fill-rule:evenodd;stroke:#000000;stroke-width:1px;stroke-linecap:butt;stroke-linejoin:miter;stroke-opacity:1"
       d="M 276.94941,379.91324 L 277.30514,228.70497 C 157.41111,219.85188 129.76409,346.57276 130.09895,377.47389 L 154.4925,377.47389 C 159.99063,314.42816 196.97004,258.04098 248.87777,258.7586 L 247.188,380.11016 L 276.94941,379.91324 z"
       id="Letter K"
       sodipodi:nodetypes="ccccccc" />
    <path
       style="fill:#ffffff;fill-opacity:1;fill-rule:evenodd;stroke:#000000;stroke-width:1px;stroke-linecap:butt;stroke-linejoin:miter;stroke-opacity:1"
       d="M 298.21754,281.42427 L 326.6068,281.68472 L 326.34635,270.48529 C 370.22014,271.3423 397.68441,316.43797 401.87743,356.17399 L 334.15991,356.174 L 334.15991,381.69829 L 430.52715,382.47964 C 425.21693,278.02786 365.96524,234.33335 298.47799,226.9898 L 298.21754,281.42427 z"
       id="Letter W"
       sodipodi:nodetypes="ccccccccc" />
    <g
       id="g3205"
       transform="translate(-1.0200073,1.2240088)">
      <g
         id="g3199">
        <path
           style="fill:#01af34;fill-opacity:1;fill-rule:evenodd;stroke:none;stroke-width:1px;stroke-linecap:butt;stroke-linejoin:miter;stroke-opacity:1"
           d="M 259.39102,445.04858 C 245.36416,452.21871 237.33335,459.61577 259.26178,469.34629 L 259.39102,445.04858 z"
           id="path3189"
           sodipodi:nodetypes="ccc" />
        <path
           style="fill:#01af34;fill-opacity:1;fill-rule:evenodd;stroke:none;stroke-width:1px;stroke-linecap:butt;stroke-linejoin:miter;stroke-opacity:1;display:inline"
           d="M 293.10593,446.85798 C 307.13279,454.02811 315.1636,461.42517 293.23517,471.15569 L 293.10593,446.85798 z"
           id="path3191"
           sodipodi:nodetypes="ccc" />
        <path
           style="fill:#01af34;fill-opacity:1;fill-rule:evenodd;stroke:none;stroke-width:1px;stroke-linecap:butt;stroke-linejoin:miter;stroke-opacity:1;display:inline"
           d="M 288.07422,474.89497 C 280.90409,488.92183 273.50703,496.95264 263.77651,475.02421 L 288.07422,474.89497 z"
           id="path3193"
           sodipodi:nodetypes="ccc" />
        <path
           style="fill:#01af34;fill-opacity:1;fill-rule:evenodd;stroke:none;stroke-width:1px;stroke-linecap:butt;stroke-linejoin:miter;stroke-opacity:1;display:inline"
           d="M 289.36665,441.95552 C 282.19652,427.92866 274.79946,419.89785 265.06894,441.82628 L 289.36665,441.95552 z"
           id="path3195"
           sodipodi:nodetypes="ccc" />
      </g>
      <path
         transform="translate(0.2128711,-0.4257422)"
         d="M 291.20765,459.35654 A 14.58167,14.847759 0 1 1 262.04431,459.35654 A 14.58167,14.847759 0 1 1 291.20765,459.35654 z"
         sodipodi:ry="14.847759"
         sodipodi:rx="14.58167"
         sodipodi:cy="459.35654"
         sodipodi:cx="276.62598"
         id="path3197"
         style="opacity:1;fill:#b4bc8b;fill-opacity:1;fill-rule:evenodd;stroke:none;stroke-width:2;stroke-linecap:butt;stroke-linejoin:round;stroke-miterlimit:4;stroke-dasharray:none;stroke-opacity:1"
         sodipodi:type="arc" />
    </g>
  </g>
  <g
     inkscape:groupmode="layer"
     id="layer4"
     inkscape:label="Bordure"
     style="display:inline"
     sodipodi:insensitive="true">
    <g
       id="g3230"
       transform="translate(-4.865625,4.0546875)">
      <path
         sodipodi:nodetypes="ccc"
         id="path3214"
         d="M 477.4116,363.36218 C 468.89083,361.92186 459.23112,358.30362 464.49742,352.7541 C 468.4729,348.56984 473.9319,354.99384 477.4116,363.36218 z"
         style="fill:#1d0035;fill-opacity:1;fill-rule:evenodd;stroke:none;stroke-width:1px;stroke-linecap:round;stroke-linejoin:round;stroke-opacity:1" />
      <path
         sodipodi:nodetypes="ccc"
         id="path3216"
         d="M 483.4181,358.372 C 479.2053,350.82678 475.97731,341.02975 483.60182,341.66051 C 489.35358,342.13981 487.76353,350.41871 483.4181,358.372 z"
         style="fill:#1d0035;fill-opacity:1;fill-rule:evenodd;stroke:none;stroke-width:1px;stroke-linecap:round;stroke-linejoin:round;stroke-opacity:1;display:inline" />
      <path
         sodipodi:nodetypes="ccc"
         id="path3218"
         d="M 483.4181,372.56522 C 479.2053,380.11044 475.97731,389.90747 483.60182,389.27671 C 489.35358,388.79741 487.76353,380.51851 483.4181,372.56522 z"
         style="fill:#1d0035;fill-opacity:1;fill-rule:evenodd;stroke:none;stroke-width:1px;stroke-linecap:round;stroke-linejoin:round;stroke-opacity:1;display:inline" />
      <path
         sodipodi:nodetypes="ccc"
         id="path3222"
         d="M 490,363.36218 C 498.52077,361.92186 508.18048,358.30362 502.91418,352.7541 C 498.9387,348.56984 493.4797,354.99384 490,363.36218 z"
         style="fill:#1d0035;fill-opacity:1;fill-rule:evenodd;stroke:none;stroke-width:1px;stroke-linecap:round;stroke-linejoin:round;stroke-opacity:1;display:inline" />
      <path
         sodipodi:nodetypes="ccc"
         id="path3224"
         d="M 477.4116,368.4402 C 468.89083,369.88052 459.23112,373.49876 464.49742,379.04828 C 468.4729,383.23254 473.9319,376.80854 477.4116,368.4402 z"
         style="fill:#1d0035;fill-opacity:1;fill-rule:evenodd;stroke:none;stroke-width:1px;stroke-linecap:round;stroke-linejoin:round;stroke-opacity:1;display:inline" />
      <path
         sodipodi:nodetypes="ccc"
         id="path3226"
         d="M 490,368.4402 C 498.52077,369.88052 508.18048,373.49876 502.91418,379.04828 C 498.9387,383.23254 493.4797,376.80854 490,368.4402 z"
         style="fill:#1d0035;fill-opacity:1;fill-rule:evenodd;stroke:none;stroke-width:1px;stroke-linecap:round;stroke-linejoin:round;stroke-opacity:1;display:inline" />
      <path
         transform="translate(-1.3508762,-0.4635558)"
         d="M 488.03296,365.92197 A 3.4530635,3.596941 0 1 1 481.12683,365.92197 A 3.4530635,3.596941 0 1 1 488.03296,365.92197 z"
         sodipodi:ry="3.596941"
         sodipodi:rx="3.4530635"
         sodipodi:cy="365.92197"
         sodipodi:cx="484.5799"
         id="path3228"
         style="opacity:1;fill:#1d0035;fill-opacity:1;fill-rule:evenodd;stroke:none;stroke-width:2;stroke-linecap:round;stroke-linejoin:round;stroke-miterlimit:4;stroke-dasharray:none;stroke-opacity:1"
         sodipodi:type="arc" />
    </g>
    <g
       style="display:inline"
       id="g3239"
       transform="translate(-411.0691,6.8787715)">
      <path
         sodipodi:nodetypes="ccc"
         id="path3241"
         d="M 477.4116,363.36218 C 468.89083,361.92186 459.23112,358.30362 464.49742,352.7541 C 468.4729,348.56984 473.9319,354.99384 477.4116,363.36218 z"
         style="fill:#1d0035;fill-opacity:1;fill-rule:evenodd;stroke:none;stroke-width:1px;stroke-linecap:round;stroke-linejoin:round;stroke-opacity:1" />
      <path
         sodipodi:nodetypes="ccc"
         id="path3243"
         d="M 483.4181,358.372 C 479.2053,350.82678 475.97731,341.02975 483.60182,341.66051 C 489.35358,342.13981 487.76353,350.41871 483.4181,358.372 z"
         style="fill:#1d0035;fill-opacity:1;fill-rule:evenodd;stroke:none;stroke-width:1px;stroke-linecap:round;stroke-linejoin:round;stroke-opacity:1;display:inline" />
      <path
         sodipodi:nodetypes="ccc"
         id="path3245"
         d="M 483.4181,372.56522 C 479.2053,380.11044 475.97731,389.90747 483.60182,389.27671 C 489.35358,388.79741 487.76353,380.51851 483.4181,372.56522 z"
         style="fill:#1d0035;fill-opacity:1;fill-rule:evenodd;stroke:none;stroke-width:1px;stroke-linecap:round;stroke-linejoin:round;stroke-opacity:1;display:inline" />
      <path
         sodipodi:nodetypes="ccc"
         id="path3247"
         d="M 490,363.36218 C 498.52077,361.92186 508.18048,358.30362 502.91418,352.7541 C 498.9387,348.56984 493.4797,354.99384 490,363.36218 z"
         style="fill:#1d0035;fill-opacity:1;fill-rule:evenodd;stroke:none;stroke-width:1px;stroke-linecap:round;stroke-linejoin:round;stroke-opacity:1;display:inline" />
      <path
         sodipodi:nodetypes="ccc"
         id="path3249"
         d="M 477.4116,368.4402 C 468.89083,369.88052 459.23112,373.49876 464.49742,379.04828 C 468.4729,383.23254 473.9319,376.80854 477.4116,368.4402 z"
         style="fill:#1d0035;fill-opacity:1;fill-rule:evenodd;stroke:none;stroke-width:1px;stroke-linecap:round;stroke-linejoin:round;stroke-opacity:1;display:inline" />
      <path
         sodipodi:nodetypes="ccc"
         id="path3251"
         d="M 490,368.4402 C 498.52077,369.88052 508.18048,373.49876 502.91418,379.04828 C 498.9387,383.23254 493.4797,376.80854 490,368.4402 z"
         style="fill:#1d0035;fill-opacity:1;fill-rule:evenodd;stroke:none;stroke-width:1px;stroke-linecap:round;stroke-linejoin:round;stroke-opacity:1;display:inline" />
      <path
         transform="translate(-1.3508762,-0.4635558)"
         d="M 488.03296,365.92197 A 3.4530635,3.596941 0 1 1 481.12683,365.92197 A 3.4530635,3.596941 0 1 1 488.03296,365.92197 z"
         sodipodi:ry="3.596941"
         sodipodi:rx="3.4530635"
         sodipodi:cy="365.92197"
         sodipodi:cx="484.5799"
         id="path3253"
         style="opacity:1;fill:#1d0035;fill-opacity:1;fill-rule:evenodd;stroke:none;stroke-width:2;stroke-linecap:round;stroke-linejoin:round;stroke-miterlimit:4;stroke-dasharray:none;stroke-opacity:1"
         sodipodi:type="arc" />
    </g>
    <text
       xml:space="preserve"
       style="font-size:48px;font-style:normal;font-variant:normal;font-weight:normal;font-stretch:normal;text-align:start;line-height:100%;writing-mode:lr-tb;text-anchor:start;fill:#8b63aa;fill-opacity:1;stroke:none;stroke-width:1px;stroke-linecap:butt;stroke-linejoin:miter;stroke-opacity:1;font-family:Arial Unicode MS;-inkscape-font-specification:Arial Unicode MS"
       id="text3255"
       sodipodi:linespacing="100%"
       transform="translate(-5.6765625,-6.4875)"><textPath
         xlink:href="#path3261"
         id="textPath3263"><tspan
   id="tspan3259"
   style="font-size:48px;font-style:normal;font-variant:normal;font-weight:normal;font-stretch:normal;text-align:start;line-height:100%;writing-mode:lr-tb;text-anchor:start;fill:#8b63aa;fill-opacity:1;font-family:Arial Unicode MS;-inkscape-font-specification:Arial Unicode MS">เทศบาลตำบลกระหวัน</tspan></textPath></text>
    <path
       style="font-size:48px;font-style:normal;font-variant:normal;font-weight:normal;font-stretch:normal;text-align:start;line-height:100%;writing-mode:lr-tb;text-anchor:start;fill:none;fill-rule:evenodd;stroke:none;stroke-width:1px;stroke-linecap:butt;stroke-linejoin:miter;stroke-opacity:1;font-family:Arial Unicode MS;-inkscape-font-specification:Arial Unicode MS"
       d="M 107.04376,307.92156 C 205.45353,135.47365 382.73547,169.92462 451.69219,301.43406"
       id="path3261"
       sodipodi:nodetypes="cc" />
    <text
       xml:space="preserve"
       style="font-size:48px;font-style:normal;font-variant:normal;font-weight:normal;font-stretch:normal;text-align:start;line-height:125%;writing-mode:lr-tb;text-anchor:start;fill:#68bfb3;fill-opacity:1;stroke:none;stroke-width:1px;stroke-linecap:butt;stroke-linejoin:miter;stroke-opacity:1;font-family:Arial Unicode MS;-inkscape-font-specification:Arial Unicode MS"
       id="text3266"
       sodipodi:linespacing="125%"
       transform="translate(-1.621875,0)"><textPath
         xlink:href="#path3273"
         id="textPath3275"><tspan
   id="tspan3270"
   style="fill:#68bfb3;fill-opacity:1;stroke:none;stroke-opacity:1">อ.ขุนหาญ  จ.ศรีสะเกษ</tspan></textPath></text>
    <path
       style="fill:none;fill-opacity:1;fill-rule:evenodd;stroke:none;stroke-width:1px;stroke-linecap:butt;stroke-linejoin:miter;stroke-opacity:1"
       d="M 90.014063,482.27312 C 143.18971,609.82563 391.61318,645.58478 470.34375,480.65125"
       id="path3273"
       sodipodi:nodetypes="cc" />
  </g>
</svg>
