<?xml version="1.0" encoding="UTF-8" standalone="no"?>
<!-- Created with Inkscape (http://www.inkscape.org/) -->
<svg
   xmlns:dc="http://purl.org/dc/elements/1.1/"
   xmlns:cc="http://creativecommons.org/ns#"
   xmlns:rdf="http://www.w3.org/1999/02/22-rdf-syntax-ns#"
   xmlns:svg="http://www.w3.org/2000/svg"
   xmlns="http://www.w3.org/2000/svg"
   xmlns:xlink="http://www.w3.org/1999/xlink"
   xmlns:sodipodi="http://sodipodi.sourceforge.net/DTD/sodipodi-0.dtd"
   xmlns:inkscape="http://www.inkscape.org/namespaces/inkscape"
   width="210mm"
   height="297mm"
   id="svg2"
   sodipodi:version="0.32"
   inkscape:version="0.46"
   sodipodi:docname="Emblem TAO Ko Tao.svg"
   inkscape:output_extension="org.inkscape.output.svg.inkscape">
  <defs
     id="defs4">
    <inkscape:perspective
       sodipodi:type="inkscape:persp3d"
       inkscape:vp_x="0 : 526.18109 : 1"
       inkscape:vp_y="0 : 1000 : 0"
       inkscape:vp_z="744.09448 : 526.18109 : 1"
       inkscape:persp3d-origin="372.04724 : 350.78739 : 1"
       id="perspective10" />
    <inkscape:perspective
       id="perspective3295"
       inkscape:persp3d-origin="372.04724 : 350.78739 : 1"
       inkscape:vp_z="744.09448 : 526.18109 : 1"
       inkscape:vp_y="0 : 1000 : 0"
       inkscape:vp_x="0 : 526.18109 : 1"
       sodipodi:type="inkscape:persp3d" />
  </defs>
  <sodipodi:namedview
     id="base"
     pagecolor="#ffffff"
     bordercolor="#666666"
     borderopacity="1.0"
     inkscape:pageopacity="0.0"
     inkscape:pageshadow="2"
     inkscape:zoom="2.8355556"
     inkscape:cx="181.37647"
     inkscape:cy="931.42859"
     inkscape:document-units="px"
     inkscape:current-layer="layer1"
     showgrid="false"
     inkscape:window-width="1440"
     inkscape:window-height="851"
     inkscape:window-x="-4"
     inkscape:window-y="-4" />
  <metadata
     id="metadata7">
    <rdf:RDF>
      <cc:Work
         rdf:about="">
        <dc:format>image/svg+xml</dc:format>
        <dc:type
           rdf:resource="http://purl.org/dc/dcmitype/StillImage" />
      </cc:Work>
    </rdf:RDF>
  </metadata>
  <g
     inkscape:label="Ebene 1"
     inkscape:groupmode="layer"
     id="layer1">
    <path
       style="fill:#000000;fill-rule:evenodd;stroke:#000000;stroke-width:1;stroke-linecap:butt;stroke-linejoin:miter;stroke-opacity:1;fill-opacity:1;stroke-miterlimit:4;stroke-dasharray:none"
       d="M 116.89963,150.12527 L 124.80132,150.12527 L 124.76795,169.96893 L 135.11601,169.98561 L 135.13268,150.07522 L 141.17701,150.07522 L 141.09475,177.73831 C 136.61871,180.59654 121.66879,180.71843 116.99857,177.88614 L 116.89963,150.12527 z"
       id="path3301"
       sodipodi:nodetypes="ccccccccc" />
    <path
       style="fill:#000000;fill-rule:evenodd;stroke:#000000;stroke-width:1;stroke-linecap:butt;stroke-linejoin:miter;stroke-opacity:1;fill-opacity:1;stroke-miterlimit:4;stroke-dasharray:none"
       d="M 79.081276,149.94385 L 111.67115,150.00942 L 111.60558,177.87803 C 96.802532,173.39388 89.169675,166.20099 82.097643,158.79623 L 102.03189,158.79623 C 101.40524,163.12102 103.12427,164.42994 106.16301,164.04208 L 106.03186,155.77986 L 80.917325,155.91101 C 79.104209,153.09218 79.0768,152.00247 79.081276,149.94385 z"
       id="path3303"
       sodipodi:nodetypes="ccccccccc" />
    <path
       style="fill:#000000;fill-rule:evenodd;stroke:#000000;stroke-width:1;stroke-linecap:butt;stroke-linejoin:miter;stroke-opacity:1;fill-opacity:1;stroke-miterlimit:4;stroke-dasharray:none"
       d="M 147.9375,149.875 L 147.94057,176.55635 C 151.50511,174.92911 155.18144,173.26057 157.78432,170.92776 L 157.84375,160.84375 C 157.15775,162.52707 156.30957,164.06549 153.5625,164.03125 L 153.71875,156.625 C 159.13687,156.9787 159.74583,160.24539 159.9375,160.25 C 160.3755,160.3684 159.8589,156.64024 164.53125,156.625 L 164.53125,166.9375 C 169.20065,163.73664 172.19655,158.66648 176.1875,149.875 L 162.15625,150 C 162.10561,152.04294 158.04472,152.13005 158.09375,149.9375 L 147.9375,149.875 z"
       id="path3305"
       sodipodi:nodetypes="ccccccccccccc" />
    <path
       sodipodi:type="arc"
       style="fill:#000000;fill-opacity:1;stroke-width:1;stroke-linecap:butt;stroke-linejoin:miter;stroke-miterlimit:4;stroke-dasharray:none"
       id="path4082"
       sodipodi:cx="102.69592"
       sodipodi:cy="114.56908"
       sodipodi:rx="19.421112"
       sodipodi:ry="20.23105"
       d="M 122.11703,114.56908 A 19.421112,20.23105 0 1 1 83.274811,114.56908 A 19.421112,20.23105 0 1 1 122.11703,114.56908 z"
       transform="translate(0.2406816,1.0429536)" />
    <path
       style="fill:#000000;fill-rule:evenodd;stroke:#000000;stroke-width:1px;stroke-linecap:butt;stroke-linejoin:miter;stroke-opacity:1;fill-opacity:1"
       d="M 78.591069,146.1162 L 175.25575,145.9996 C 171.24404,142.76218 170.75032,140.48546 168.25952,137.25431 C 164.93868,136.04733 161.98011,136.59599 160.21384,139.11997 C 154.61828,128.81961 150.29853,125.66655 145.98815,124.07805 C 145.75558,121.2388 146.09308,117.97196 147.38741,110.552 C 147.98098,106.6652 147.12587,102.7784 146.80439,98.8916 C 152.8612,100.38105 151.7836,111.75095 150.88552,120.92975 C 158.49864,120.43182 160.74428,113.86635 156.36591,99.358016 C 154.67044,98.089099 150.79484,100.5988 148.43684,94.344046 C 151.19982,94.608928 154.98286,95.850402 159.0478,94.110838 C 159.78898,97.247656 159.57723,100.08751 164.52819,102.62293 C 165.6121,101.2889 166.77392,99.747905 166.62706,95.976501 C 155.33313,79.6202 151.50386,92.236552 146.22137,92.828194 L 145.63835,86.881392 C 147.54383,86.610269 148.0614,84.951231 148.43684,83.150066 C 146.89792,80.029694 144.99058,76.983004 141.90702,74.171561 L 133.16172,73.938353 C 135.02161,83.358831 141.65425,85.33671 142.72325,91.545551 C 131.72364,87.30898 125.88075,89.948044 122.31755,95.626689 C 122.05143,98.994023 121.62104,102.95097 122.55076,105.42143 C 124.37189,103.45472 126.29184,101.44518 130.24662,99.47462 L 130.36323,95.976501 C 132.1179,96.057524 132.93287,96.307281 136.07682,95.276877 C 136.55895,93.85936 138.473,93.353068 142.37344,94.110838 L 141.67381,99.47462 C 132.33907,102.78064 129.4177,108.6921 130.01342,116.03238 C 131.42396,117.46485 132.76034,118.9344 135.3772,119.76371 C 135.409,116.25675 136.08393,113.55371 137.35947,111.60143 C 138.95152,102.72266 141.37496,102.98913 143.53947,100.40745 C 144.30279,104.02217 144.25026,107.6369 143.77268,111.25162 C 138.99192,119.687 134.21116,123.03675 129.4304,127.69278 C 128.1537,124.48778 125.74963,124.66487 123.25039,125.12749 L 119.86887,132.35694 C 116.72841,131.93424 115.59797,136.20121 113.92207,139.58638 C 109.91086,137.95155 107.41391,141.06868 103.77752,144.48375 L 97.480911,144.25054 C 97.065904,141.01947 96.405259,139.28946 95.38204,138.18713 C 90.910127,137.6361 90.352453,137.28046 89.085426,136.43808 C 87.287183,138.00707 86.260065,139.96163 85.703911,142.15167 C 81.887704,141.54617 79.609414,142.99122 78.591069,146.1162 z"
       id="path5532"
       sodipodi:nodetypes="ccccccccccccccccccccccccccccccccccccccccc" />
    <g
       id="g5550">
      <path
         sodipodi:nodetypes="cc"
         id="path5534"
         d="M 195.57296,125.97757 L 200.55283,126.04224"
         style="fill:#000000;fill-rule:evenodd;stroke:#000000;stroke-width:1.50000000000000000;stroke-linecap:round;stroke-linejoin:round;stroke-opacity:1;stroke-miterlimit:4;stroke-dasharray:none;fill-opacity:1" />
      <path
         sodipodi:nodetypes="cc"
         id="path5536"
         d="M 203.85118,125.97757 L 208.7017,126.04224"
         style="fill:#000000;fill-rule:evenodd;stroke:#000000;stroke-width:1.50000000000000000;stroke-linecap:round;stroke-linejoin:round;stroke-opacity:1;stroke-miterlimit:4;stroke-dasharray:none;fill-opacity:1" />
      <path
         sodipodi:nodetypes="cc"
         id="path5538"
         d="M 198.03056,131.5395 L 201.52293,127.72375"
         style="fill:#000000;fill-rule:evenodd;stroke:#000000;stroke-width:1.50000000000000000;stroke-linecap:round;stroke-linejoin:round;stroke-opacity:1;stroke-miterlimit:4;stroke-dasharray:none;fill-opacity:1" />
      <path
         id="path5540"
         d="M 203.78651,127.72375 L 207.53758,131.60417"
         style="fill:#000000;fill-rule:evenodd;stroke:#000000;stroke-width:1.50000000000000000;stroke-linecap:round;stroke-linejoin:round;stroke-opacity:1;stroke-miterlimit:4;stroke-dasharray:none;fill-opacity:1" />
      <path
         sodipodi:nodetypes="ccc"
         id="path5542"
         d="M 201.71695,130.24602 C 200.30352,130.30522 201.28937,137.66236 200.8762,141.36988 C 203.53156,135.80803 206.44066,130.09926 201.71695,130.24602 z"
         style="fill:#000000;fill-rule:evenodd;stroke:#000000;stroke-width:1px;stroke-linecap:round;stroke-linejoin:round;stroke-opacity:1;fill-opacity:1" />
      <path
         id="path5544"
         d="M 198.09523,120.739 L 201.5876,124.4254"
         style="fill:#000000;fill-rule:evenodd;stroke:#000000;stroke-width:1.50000000000000000;stroke-linecap:round;stroke-linejoin:round;stroke-opacity:1;stroke-miterlimit:4;stroke-dasharray:none;fill-opacity:1" />
      <path
         id="path5546"
         d="M 207.53758,120.80368 C 207.21421,121.19172 203.72183,124.36073 203.72183,124.36073"
         style="fill:#000000;fill-rule:evenodd;stroke:#000000;stroke-width:1.50000000000000000;stroke-linecap:round;stroke-linejoin:round;stroke-opacity:1;stroke-miterlimit:4;stroke-dasharray:none;fill-opacity:1" />
      <path
         sodipodi:nodetypes="ccc"
         id="path5548"
         d="M 200.8762,111.6847 C 200.98005,118.34854 200.84241,123.35279 203.59249,122.67921 C 205.88158,119.28058 202.53781,113.71487 200.8762,111.6847 z"
         style="fill:#000000;fill-rule:evenodd;stroke:#000000;stroke-width:1px;stroke-linecap:round;stroke-linejoin:round;stroke-opacity:1;fill-opacity:1" />
    </g>
    <g
       id="g5560"
       transform="matrix(-1,0,0,1,253.97902,-0.2622865)">
      <path
         sodipodi:nodetypes="cc"
         id="path5562"
         d="M 195.57296,125.97757 L 200.55283,126.04224"
         style="fill:#000000;fill-opacity:1;fill-rule:evenodd;stroke:#000000;stroke-width:1.5;stroke-linecap:round;stroke-linejoin:round;stroke-miterlimit:4;stroke-dasharray:none;stroke-opacity:1" />
      <path
         sodipodi:nodetypes="cc"
         id="path5564"
         d="M 203.85118,125.97757 L 208.7017,126.04224"
         style="fill:#000000;fill-opacity:1;fill-rule:evenodd;stroke:#000000;stroke-width:1.5;stroke-linecap:round;stroke-linejoin:round;stroke-miterlimit:4;stroke-dasharray:none;stroke-opacity:1" />
      <path
         sodipodi:nodetypes="cc"
         id="path5566"
         d="M 198.03056,131.5395 L 201.52293,127.72375"
         style="fill:#000000;fill-opacity:1;fill-rule:evenodd;stroke:#000000;stroke-width:1.5;stroke-linecap:round;stroke-linejoin:round;stroke-miterlimit:4;stroke-dasharray:none;stroke-opacity:1" />
      <path
         id="path5568"
         d="M 203.78651,127.72375 L 207.53758,131.60417"
         style="fill:#000000;fill-opacity:1;fill-rule:evenodd;stroke:#000000;stroke-width:1.5;stroke-linecap:round;stroke-linejoin:round;stroke-miterlimit:4;stroke-dasharray:none;stroke-opacity:1" />
      <path
         sodipodi:nodetypes="ccc"
         id="path5570"
         d="M 201.71695,130.24602 C 200.30352,130.30522 201.28937,137.66236 200.8762,141.36988 C 203.53156,135.80803 206.44066,130.09926 201.71695,130.24602 z"
         style="fill:#000000;fill-opacity:1;fill-rule:evenodd;stroke:#000000;stroke-width:1px;stroke-linecap:round;stroke-linejoin:round;stroke-opacity:1" />
      <path
         id="path5572"
         d="M 198.09523,120.739 L 201.5876,124.4254"
         style="fill:#000000;fill-opacity:1;fill-rule:evenodd;stroke:#000000;stroke-width:1.5;stroke-linecap:round;stroke-linejoin:round;stroke-miterlimit:4;stroke-dasharray:none;stroke-opacity:1" />
      <path
         id="path5574"
         d="M 207.53758,120.80368 C 207.21421,121.19172 203.72183,124.36073 203.72183,124.36073"
         style="fill:#000000;fill-opacity:1;fill-rule:evenodd;stroke:#000000;stroke-width:1.5;stroke-linecap:round;stroke-linejoin:round;stroke-miterlimit:4;stroke-dasharray:none;stroke-opacity:1" />
      <path
         sodipodi:nodetypes="ccc"
         id="path5576"
         d="M 200.8762,111.6847 C 200.98005,118.34854 200.84241,123.35279 203.59249,122.67921 C 205.88158,119.28058 202.53781,113.71487 200.8762,111.6847 z"
         style="fill:#000000;fill-opacity:1;fill-rule:evenodd;stroke:#000000;stroke-width:1px;stroke-linecap:round;stroke-linejoin:round;stroke-opacity:1" />
    </g>
    <path
       sodipodi:type="arc"
       style="fill:none;fill-opacity:1;stroke:#000000;stroke-width:1;stroke-linecap:round;stroke-linejoin:round;stroke-miterlimit:4;stroke-dasharray:none;stroke-opacity:1"
       id="path5578"
       sodipodi:cx="25.568182"
       sodipodi:cy="44.623154"
       sodipodi:rx="60.834637"
       sodipodi:ry="61.187305"
       d="M 86.402819,44.623154 A 60.834637,61.187305 0 1 1 -35.266455,44.623154 A 60.834637,61.187305 0 1 1 86.402819,44.623154 z"
       transform="translate(101.5674,80.054862)" />
    <path
       sodipodi:type="arc"
       style="fill:none;fill-opacity:1;stroke:#000000;stroke-width:0.68916233;stroke-linecap:round;stroke-linejoin:round;stroke-miterlimit:4;stroke-dasharray:none;stroke-opacity:1"
       id="path5600"
       sodipodi:cx="25.568182"
       sodipodi:cy="44.623154"
       sodipodi:rx="60.834637"
       sodipodi:ry="61.187305"
       d="M 86.402819,44.623154 A 60.834637,61.187305 0 1 1 -35.266455,44.623154 A 60.834637,61.187305 0 1 1 86.402819,44.623154 z"
       transform="matrix(1.4408162,0,0,1.4613302,89.591204,57.0002)" />
    <path
       sodipodi:type="arc"
       style="fill:none;fill-opacity:1;stroke:#000000;stroke-width:0.68916231;stroke-linecap:round;stroke-linejoin:round;stroke-miterlimit:4;stroke-dasharray:none;stroke-opacity:1"
       id="path5602"
       sodipodi:cx="25.568182"
       sodipodi:cy="44.623154"
       sodipodi:rx="60.834637"
       sodipodi:ry="61.187305"
       d="M 86.402819,44.623154 A 60.834637,61.187305 0 1 1 -35.266455,44.623154 A 60.834637,61.187305 0 1 1 86.402819,44.623154 z"
       transform="matrix(1.4775488,0,0,1.4985858,88.479142,55.161403)" />
    <path
       sodipodi:type="arc"
       style="fill:none;fill-opacity:1;stroke:#000000;stroke-width:0.68916231;stroke-linecap:round;stroke-linejoin:round;stroke-miterlimit:4;stroke-dasharray:none;stroke-opacity:1"
       id="path5606"
       sodipodi:cx="25.568182"
       sodipodi:cy="44.623154"
       sodipodi:rx="60.834637"
       sodipodi:ry="61.187305"
       d="M 86.402819,44.623154 A 60.834637,61.187305 0 1 1 -35.266455,44.623154 A 60.834637,61.187305 0 1 1 86.402819,44.623154 z"
       transform="matrix(1.5199326,0,0,1.5415731,87.568338,53.419507)" />
    <text
       xml:space="preserve"
       style="font-size:13px;font-style:normal;font-variant:normal;font-weight:normal;font-stretch:normal;text-align:start;line-height:100%;writing-mode:lr;text-anchor:start;fill:#000000;fill-opacity:1;stroke:none;stroke-width:1px;stroke-linecap:butt;stroke-linejoin:miter;stroke-opacity:1;font-family:Arial Unicode MS;-inkscape-font-specification:Arial Unicode MS"
       id="text5608"
       sodipodi:linespacing="100%"><textPath
         xlink:href="#path5630"
         id="textPath5632"><tspan
   id="tspan5616"
   style="-inkscape-font-specification:Arial Unicode MS;font-family:Arial Unicode MS;font-weight:normal;font-style:normal;font-stretch:normal;font-variant:normal;font-size:13px;text-anchor:start;text-align:start;writing-mode:lr;line-height:100%"><tspan
   id="tspan5614"
   style="font-size:13px;font-style:normal;font-variant:normal;font-weight:normal;font-stretch:normal;text-align:start;line-height:100%;writing-mode:lr;text-anchor:start;font-family:Arial Unicode MS;-inkscape-font-specification:Arial Unicode MS">องค</tspan>์การบริการส่วนตำบลเกาะเต่า</tspan></textPath></text>
    <text
       xml:space="preserve"
       style="font-size:16px;font-style:normal;font-variant:normal;font-weight:normal;font-stretch:normal;text-align:start;line-height:125%;writing-mode:lr;text-anchor:start;fill:#000000;fill-opacity:1;stroke:none;stroke-width:1px;stroke-linecap:butt;stroke-linejoin:miter;stroke-opacity:1;font-family:Arial Unicode MS;-inkscape-font-specification:Arial Unicode MS"
       id="text5624"
       sodipodi:linespacing="125%"><textPath
         xlink:href="#path5636"
         id="textPath5638"><tspan
   id="tspan5628"
   style="-inkscape-font-specification:Arial Unicode MS;font-family:Arial Unicode MS;font-weight:normal;font-style:normal;font-stretch:normal;font-variant:normal;font-size:16px;text-anchor:start;text-align:start;writing-mode:lr;line-height:125%">อ.เกาะพะงัน จ.สุราษฏร์ธานี </tspan></textPath></text>
    <path
       style="fill:none;fill-rule:evenodd;stroke:none;stroke-width:1px;stroke-linecap:butt;stroke-linejoin:miter;stroke-opacity:1"
       d="M 57.131661,105.81046 C 92.827699,38.422044 164.38205,36.725756 195.37618,102.28381 L 194.67085,102.28381 L 194.67085,102.28381"
       id="path5630"
       sodipodi:nodetypes="cccc" />
    <path
       style="fill:none;fill-rule:evenodd;stroke:none;stroke-width:1px;stroke-linecap:butt;stroke-linejoin:miter;stroke-opacity:1;-inkscape-font-specification:Arial Unicode MS;font-family:Arial Unicode MS;font-weight:normal;font-style:normal;font-stretch:normal;font-variant:normal;font-size:16px;text-anchor:start;text-align:start;writing-mode:lr;line-height:125%"
       d="M 54.310345,156.94682 C 86.588228,214.45866 170.62575,223.28329 201.01881,154.12551 L 201.01881,154.12551"
       id="path5636"
       sodipodi:nodetypes="ccc" />
  </g>
</svg>
