<?xml version="1.0" encoding="UTF-8" standalone="no"?>
<!-- Created with Inkscape (http://www.inkscape.org/) -->
<svg
   xmlns:dc="http://purl.org/dc/elements/1.1/"
   xmlns:cc="http://web.resource.org/cc/"
   xmlns:rdf="http://www.w3.org/1999/02/22-rdf-syntax-ns#"
   xmlns:svg="http://www.w3.org/2000/svg"
   xmlns="http://www.w3.org/2000/svg"
   xmlns:xlink="http://www.w3.org/1999/xlink"
   xmlns:sodipodi="http://sodipodi.sourceforge.net/DTD/sodipodi-0.dtd"
   xmlns:inkscape="http://www.inkscape.org/namespaces/inkscape"
   width="210mm"
   height="297mm"
   id="svg2"
   sodipodi:version="0.32"
   inkscape:version="0.44"
   sodipodi:docbase="E:\Thailand\Seals\Thesaban"
   sodipodi:docname="Chiang Mai - Doi Saket - San Pu Loei.svg">
  <defs
     id="defs4" />
  <sodipodi:namedview
     id="base"
     pagecolor="#ffffff"
     bordercolor="#666666"
     borderopacity="1.0"
     inkscape:pageopacity="0.0"
     inkscape:pageshadow="2"
     inkscape:zoom="2.2375"
     inkscape:cx="362.85714"
     inkscape:cy="824.74465"
     inkscape:document-units="px"
     inkscape:current-layer="layer1"
     inkscape:window-width="1280"
     inkscape:window-height="911"
     inkscape:window-x="-4"
     inkscape:window-y="-4" />
  <metadata
     id="metadata7">
    <rdf:RDF>
      <cc:Work
         rdf:about="">
        <dc:format>image/svg+xml</dc:format>
        <dc:type
           rdf:resource="http://purl.org/dc/dcmitype/StillImage" />
      </cc:Work>
    </rdf:RDF>
  </metadata>
  <g
     inkscape:label="Ebene 1"
     inkscape:groupmode="layer"
     id="layer1">
    <path
       sodipodi:type="arc"
       style="opacity:1;fill:none;fill-opacity:1;fill-rule:evenodd;stroke:black;stroke-width:2;stroke-linecap:round;stroke-linejoin:round;stroke-miterlimit:4;stroke-dasharray:none;stroke-opacity:1"
       id="path1950"
       sodipodi:cx="342.40622"
       sodipodi:cy="205.75803"
       sodipodi:rx="77.194733"
       sodipodi:ry="92.845169"
       d="M 419.60095 205.75803 A 77.194733 92.845169 0 1 1  265.21149,205.75803 A 77.194733 92.845169 0 1 1  419.60095 205.75803 z"
       transform="matrix(1.721874,0,0,1.363289,-221.795,-51.06252)" />
    <path
       sodipodi:type="arc"
       style="opacity:1;fill:none;fill-opacity:1;fill-rule:evenodd;stroke:black;stroke-width:2;stroke-linecap:round;stroke-linejoin:round;stroke-miterlimit:4;stroke-dasharray:none;stroke-opacity:1"
       id="path1952"
       sodipodi:cx="372.22665"
       sodipodi:cy="208.29594"
       sodipodi:rx="49.912212"
       sodipodi:ry="47.585793"
       d="M 422.13887 208.29594 A 49.912212 47.585793 0 1 1  322.31444,208.29594 A 49.912212 47.585793 0 1 1  422.13887 208.29594 z"
       transform="matrix(1.012413,0,0,1.017464,-9.061658,-2.791695)" />
    <path
       sodipodi:type="arc"
       style="opacity:1;fill:none;fill-opacity:1;fill-rule:evenodd;stroke:black;stroke-width:2;stroke-linecap:round;stroke-linejoin:round;stroke-miterlimit:4;stroke-dasharray:none;stroke-opacity:1"
       id="path1954"
       sodipodi:cx="378.35992"
       sodipodi:cy="227.11877"
       sodipodi:rx="83.116524"
       sodipodi:ry="85.019951"
       d="M 461.47645 227.11877 A 83.116524 85.019951 0 1 1  295.2434,227.11877 A 83.116524 85.019951 0 1 1  461.47645 227.11877 z"
       transform="matrix(1.131242,0,0,1.048702,-60.65448,-9.369242)" />
    <path
       style="fill:none;fill-opacity:0.75;fill-rule:evenodd;stroke:black;stroke-width:3;stroke-linecap:butt;stroke-linejoin:round;stroke-opacity:1;stroke-miterlimit:4;stroke-dasharray:none"
       d="M 338.28862,311.15687 C 338.4255,298.79219 339.54371,292.077 331.58939,285.23547 C 328.10435,282.89415 321.86122,277.35341 313.43176,270.6862 C 304.63148,261.91815 306.18112,249.83812 307.93296,237.69339 C 308.30597,231.20762 308.83483,224.72186 308.77893,218.23609 C 314.20159,225.27829 317.83137,236.04398 322.73743,254.61278 C 327.14433,264.74242 333.01785,269.76237 340.44017,272.99963 C 334.54851,264.82192 331.38573,258.2629 331.94385,250.08519 C 337.74385,257.13306 344.6067,263.11807 351.68826,268.88439 C 359.44443,273.03402 360.63589,283.76424 361.10381,296.48828 L 361.42755,313.2458"
       id="path1956"
       sodipodi:nodetypes="ccccccccccc" />
    <use
       x="0"
       y="0"
       xlink:href="#path1956"
       id="use2845"
       transform="matrix(-1,0,0,1,734.6945,0.161869)"
       width="744.09448"
       height="1052.3622" />
    <path
       style="fill:black;fill-opacity:1;fill-rule:evenodd;stroke:black;stroke-width:1px;stroke-linecap:butt;stroke-linejoin:bevel;stroke-opacity:1"
       d="M 365.49907,217.93007 L 365.66094,251.92246 C 331.69917,243.67176 325.35546,229.22443 321.30897,211.94094 C 329.7405,218.30425 343.32697,209.86084 333.44911,203.36191 C 332.05582,205.37291 331.23829,207.61421 331.99229,210.48412 C 320.44465,209.77907 318.72402,202.39165 328.75492,187.01319 C 333.00127,193.38325 343.06876,197.55313 346.39859,204.33312 L 346.39859,215.82578 C 341.33069,215.30794 336.04284,213.9287 334.74406,222.62426 C 337.74993,229.58495 343.19871,236.15478 356.92004,241.401 L 356.43443,208.86544 L 365.49907,217.93007 z "
       id="path4623"
       sodipodi:nodetypes="cccccccccccc" />
    <path
       style="fill:black;fill-opacity:1;fill-rule:evenodd;stroke:black;stroke-width:1px;stroke-linecap:butt;stroke-linejoin:bevel;stroke-opacity:1"
       d="M 345.10364,194.94475 L 332.63976,185.55637 L 332.63977,181.02405 C 338.32378,173.35629 373.0029,150.82723 400.7864,181.8334 L 400.94827,184.58516 L 367.44149,214.04523 L 348.17914,196.56343 C 349.38011,193.32086 351.30465,192.61081 353.35893,192.35485 L 366.79402,188.14627 C 369.22764,189.69685 372.6706,190.64183 368.89831,195.91596 L 360.80488,198.34398 L 365.98468,204.00938 L 389.94121,182.64274 C 375.54766,172.63346 360.2996,169.88755 343.32309,181.8334 L 345.10364,184.74702 L 345.10364,194.94475 z "
       id="path5510"
       sodipodi:nodetypes="cccccccccccccccc" />
    <path
       style="fill:black;fill-opacity:1;fill-rule:evenodd;stroke:black;stroke-width:1px;stroke-linecap:butt;stroke-linejoin:bevel;stroke-opacity:1"
       d="M 395.28287,242.21035 C 394.76284,240.49886 423.5031,227.09305 405.15685,185.55637 L 385.57076,202.87631 L 385.73263,209.51291 L 380.2291,207.08488 L 368.73644,217.7682 L 368.73644,251.76059 C 372.51798,249.47003 377.68674,249.94674 387.67505,246.74266 C 392.77022,244.49203 394.06803,239.70982 392.69298,233.14571 C 393.7721,229.5846 395.4987,227.10262 397.87277,225.69976 C 390.16518,218.18015 376.88421,225.14855 379.09602,236.38308 C 382.63271,235.38234 385.96717,234.58382 388.64627,234.44066 C 386.90216,238.13179 385.47763,241.9117 376.18239,243.50529 L 376.34426,223.27173 L 383.79021,216.95886 L 392.85485,218.2538 C 388.30784,208.98581 396.13054,206.271 402.08135,200.12453 C 405.58881,217.67398 400.18363,230.12625 395.28287,242.21035 z "
       id="path6397"
       sodipodi:nodetypes="cccccccccccccccccc" />
    <g
       id="g10846">
      <path
         transform="matrix(0.992544,-0.121883,0.121883,0.992544,-27.96409,32.33916)"
         d="M 258.03502 238.86978 A 2.5542274 5.7179861 0 1 1  252.92656,238.86978 A 2.5542274 5.7179861 0 1 1  258.03502 238.86978 z"
         sodipodi:ry="5.7179861"
         sodipodi:rx="2.5542274"
         sodipodi:cy="238.86978"
         sodipodi:cx="255.48079"
         id="path9056"
         style="opacity:1;fill:black;fill-opacity:1;fill-rule:evenodd;stroke:black;stroke-width:1;stroke-linecap:round;stroke-linejoin:round;stroke-miterlimit:4;stroke-dasharray:none;stroke-opacity:1"
         sodipodi:type="arc" />
      <path
         transform="matrix(0.146812,0.989164,-0.989164,0.146812,463.6587,-41.56819)"
         d="M 258.03502 238.86978 A 2.5542274 5.7179861 0 1 1  252.92656,238.86978 A 2.5542274 5.7179861 0 1 1  258.03502 238.86978 z"
         sodipodi:ry="5.7179861"
         sodipodi:rx="2.5542274"
         sodipodi:cy="238.86978"
         sodipodi:cx="255.48079"
         id="path9943"
         style="opacity:1;fill:black;fill-opacity:1;fill-rule:evenodd;stroke:black;stroke-width:1;stroke-linecap:round;stroke-linejoin:round;stroke-miterlimit:4;stroke-dasharray:none;stroke-opacity:1"
         sodipodi:type="arc" />
      <path
         transform="matrix(-0.126422,-0.991976,0.991976,-0.126422,42.00247,531.9322)"
         d="M 258.03502 238.86978 A 2.5542274 5.7179861 0 1 1  252.92656,238.86978 A 2.5542274 5.7179861 0 1 1  258.03502 238.86978 z"
         sodipodi:ry="5.7179861"
         sodipodi:rx="2.5542274"
         sodipodi:cy="238.86978"
         sodipodi:cx="255.48079"
         id="path9945"
         style="opacity:1;fill:black;fill-opacity:1;fill-rule:evenodd;stroke:black;stroke-width:1;stroke-linecap:round;stroke-linejoin:round;stroke-miterlimit:4;stroke-dasharray:none;stroke-opacity:1"
         sodipodi:type="arc" />
      <path
         transform="matrix(0.992544,-0.121883,0.121883,0.992544,-25.69998,49.89959)"
         d="M 258.03502 238.86978 A 2.5542274 5.7179861 0 1 1  252.92656,238.86978 A 2.5542274 5.7179861 0 1 1  258.03502 238.86978 z"
         sodipodi:ry="5.7179861"
         sodipodi:rx="2.5542274"
         sodipodi:cy="238.86978"
         sodipodi:cx="255.48079"
         id="path9947"
         style="opacity:1;fill:black;fill-opacity:1;fill-rule:evenodd;stroke:black;stroke-width:1;stroke-linecap:round;stroke-linejoin:round;stroke-miterlimit:4;stroke-dasharray:none;stroke-opacity:1"
         sodipodi:type="arc" />
      <path
         sodipodi:nodetypes="cc"
         id="path9951"
         d="M 247.12151,257.30085 L 253.73927,249.98648"
         style="fill:none;fill-opacity:0.75;fill-rule:evenodd;stroke:black;stroke-width:2;stroke-linecap:round;stroke-linejoin:round;stroke-opacity:1;stroke-miterlimit:4;stroke-dasharray:none" />
      <path
         sodipodi:nodetypes="cc"
         id="path10838"
         d="M 244.44154,239.08985 L 252.35568,244.97724"
         style="fill:none;fill-opacity:0.75;fill-rule:evenodd;stroke:black;stroke-width:2;stroke-linecap:round;stroke-linejoin:round;stroke-miterlimit:4;stroke-dasharray:none;stroke-opacity:1" />
      <path
         sodipodi:nodetypes="cc"
         id="path10840"
         d="M 258.32527,244.06531 L 264.94303,236.75094"
         style="fill:none;fill-opacity:0.75;fill-rule:evenodd;stroke:black;stroke-width:2;stroke-linecap:round;stroke-linejoin:round;stroke-miterlimit:4;stroke-dasharray:none;stroke-opacity:1" />
      <path
         sodipodi:nodetypes="cc"
         id="path10842"
         d="M 259.58594,249.97798 L 267.2815,256.14833"
         style="fill:none;fill-opacity:0.75;fill-rule:evenodd;stroke:black;stroke-width:2;stroke-linecap:round;stroke-linejoin:round;stroke-miterlimit:4;stroke-dasharray:none;stroke-opacity:1" />
      <path
         transform="matrix(1.187705,0,0,1.110782,-48.76797,-26.66961)"
         d="M 257.16427 246.50343 A 0.7546581 0.7546581 0 1 1  255.65495,246.50343 A 0.7546581 0.7546581 0 1 1  257.16427 246.50343 z"
         sodipodi:ry="0.7546581"
         sodipodi:rx="0.7546581"
         sodipodi:cy="246.50343"
         sodipodi:cx="256.40961"
         id="path10844"
         style="opacity:1;fill:black;fill-opacity:1;fill-rule:evenodd;stroke:black;stroke-width:2;stroke-linecap:round;stroke-linejoin:round;stroke-miterlimit:4;stroke-dasharray:none;stroke-opacity:1"
         sodipodi:type="arc" />
    </g>
    <use
       x="0"
       y="0"
       xlink:href="#g10846"
       id="use10857"
       transform="matrix(-1,0,0,1,735.6821,0.262164)"
       width="744.09448"
       height="1052.3622" />
    <flowRoot
       xml:space="preserve"
       id="flowRoot10859"
       style="font-family:Arial;font-weight:normal;font-style:normal;font-stretch:normal;font-variant:normal;font-size:22;text-anchor:start;text-align:start;writing-mode:lr;line-height:100%"><flowRegion
         id="flowRegion10861"><rect
           id="rect10863"
           width="292.73743"
           height="24.581005"
           x="149.27374"
           y="109.79235"
           style="font-family:Arial;font-weight:normal;font-style:normal;font-stretch:normal;font-variant:normal;font-size:22;text-anchor:start;text-align:start;writing-mode:lr;line-height:100%" /></flowRegion><flowPara
         id="flowPara10867">องค์การบริหารส่วนตำบลสันปูเลย</flowPara></flowRoot>    <text
       xml:space="preserve"
       style="font-size:22.5;font-style:normal;font-variant:normal;font-weight:normal;font-stretch:normal;text-align:start;line-height:100%;writing-mode:lr;text-anchor:start;fill:black;fill-opacity:1;stroke:none;stroke-width:1px;stroke-linecap:butt;stroke-linejoin:miter;stroke-opacity:1;font-family:Arial Unicode MS"
       id="text11760"
       sodipodi:linespacing="100%"><textPath
         xlink:href="#path12671"
         id="textPath12673"><tspan
   id="tspan11764"
   style="font-family:Arial Unicode MS;font-weight:normal;font-style:normal;font-stretch:normal;font-variant:normal;font-size:22.5;text-anchor:start;text-align:start;writing-mode:lr;line-height:100%">องค์การบริหารส่วนตำบลสันปูเลย</tspan></textPath></text>
    <path
       sodipodi:type="arc"
       style="opacity:1;fill:none;fill-opacity:1;fill-rule:evenodd;stroke:none;stroke-width:2;stroke-linecap:round;stroke-linejoin:round;stroke-miterlimit:4;stroke-dasharray:none;stroke-opacity:1"
       id="path12671"
       sodipodi:cx="370.27933"
       sodipodi:cy="246.99905"
       sodipodi:rx="103.01996"
       sodipodi:ry="112.64819"
       d="M 267.85332,234.92013 A 103.01996,112.64819 0 0 1 473.2565,243.75284 L 370.27933,246.99905 z"
       transform="matrix(1.00048,0,0,0.897113,-1.965262,10.6643)"
       sodipodi:start="3.2490262"
       sodipodi:end="6.254364" />
    <text
       xml:space="preserve"
       style="font-size:25.5px;font-style:normal;font-variant:normal;font-weight:normal;font-stretch:normal;text-align:start;line-height:100%;writing-mode:lr-tb;text-anchor:start;fill:black;fill-opacity:1;stroke:none;stroke-width:1px;stroke-linecap:butt;stroke-linejoin:miter;stroke-opacity:1;font-family:Arial Unicode MS"
       id="text17120"
       sodipodi:linespacing="100%"
       transform="translate(0.446927,0.446927)"><textPath
         xlink:href="#path17126"
         id="textPath17129"><tspan
   id="tspan17124"
   style="font-size:25.5px;font-style:normal;font-variant:normal;font-weight:normal;font-stretch:normal;text-align:start;line-height:100%;writing-mode:lr-tb;text-anchor:start;font-family:Arial Unicode MS">อ.ดอยสะเก็ด จ.เชียงใหม่</tspan></textPath></text>
    <path
       style="font-size:23.5px;font-style:normal;font-variant:normal;font-weight:normal;font-stretch:normal;text-align:start;line-height:100%;writing-mode:lr-tb;text-anchor:start;fill:none;fill-opacity:0.75;fill-rule:evenodd;stroke:none;stroke-width:1px;stroke-linecap:butt;stroke-linejoin:miter;stroke-opacity:1;font-family:Arial Unicode MS"
       d="M 259.21788,286.32866 C 321.37283,363.17623 407.27001,364.38613 475.53073,285.88173"
       id="path17126"
       sodipodi:nodetypes="cc" />
  </g>
</svg>
